<?xml version="1.0" standalone="no"?><!DOCTYPE svg PUBLIC "-//W3C//DTD SVG 1.1//EN" "http://www.w3.org/Graphics/SVG/1.1/DTD/svg11.dtd"><svg height="1024" node-id="1" sillyvg="true" template-height="1024" template-width="1024" version="1.1" viewBox="0 0 1024 1024" width="1024" xmlns="http://www.w3.org/2000/svg" xmlns:xlink="http://www.w3.org/1999/xlink"><defs node-id="38"></defs><g node-id="40"><path d="M 658.20 320.20 L 629.80 398.10 L 684.70 398.10 L 684.70 317.20 L 658.20 320.20 Z" fill="#ffffff" fill-rule="evenodd" group-id="1" id="路径-56" node-id="6" stroke="#000000" stroke-linecap="butt" stroke-width="3.2" target-height="80.899994" target-width="54.900024" target-x="629.8" target-y="317.2"></path><path d="M 185.60 583.90 L 841.60 583.90 L 841.60 590.30 L 185.60 590.30 Z" fill="#000000" fill-rule="evenodd" group-id="1" id="矩形" node-id="7" stroke="none" target-height="6.3999634" target-width="656" target-x="185.6" target-y="583.9"></path><path d="M 411.20 341.60 L 529.10 341.60 L 543.00 341.90 L 556.90 342.80 L 570.90 344.20 L 584.90 346.10 L 599.00 348.70 L 613.10 351.80 L 627.30 355.50 L 641.70 359.90 L 644.50 364.50 L 647.40 368.30 L 650.30 371.30 L 653.10 373.70 L 656.00 375.40 L 659.00 376.60 L 662.00 377.40 L 665.20 377.60 L 668.40 377.30 L 671.20 376.60 L 673.90 375.30 L 676.30 373.60 L 678.60 371.20 L 680.70 368.30 L 682.60 364.50 L 684.30 359.90 L 719.80 359.90 L 725.30 356.20 L 730.80 353.30 L 736.20 351.00 L 741.60 349.30 L 747.00 348.30 L 752.40 347.80 L 757.90 347.90 L 763.50 348.60 L 766.70 349.40 L 769.50 350.70 L 772.10 352.40 L 774.60 354.70 L 776.80 357.60 L 778.90 361.20 L 780.80 365.70 L 782.40 371.00 L 783.70 377.40 L 784.70 385.00 L 785.30 394.10 L 785.30 533.60 L 785.60 540.90 L 785.20 547.30 L 784.30 552.90 L 783.00 557.80 L 781.20 562.00 L 779.00 565.70 L 776.50 569.00 L 773.50 571.70 L 770.00 574.10 L 766.10 576.00 L 761.50 577.60 L 755.60 579.20 L 747.90 580.60 L 738.30 581.90 L 726.50 582.90 L 712.00 583.60 L 694.50 584.00 L 673.60 583.90 L 668.00 597.00 L 666.80 600.50 L 664.70 608.70 L 664.20 609.90 L 663.50 610.50 L 662.70 610.70 L 661.50 610.50 L 660.40 609.70 L 659.40 608.30 L 658.60 606.00 L 657.90 602.30 L 657.50 596.80 L 657.60 589.10 L 655.30 599.00 L 653.30 605.50 L 651.50 609.50 L 650.00 611.80 L 648.70 612.90 L 647.60 613.20 L 646.50 612.90 L 645.40 612.00 L 644.30 610.30 L 643.30 607.20 L 642.40 602.30 L 641.70 595.00 L 641.40 594.70 L 638.60 602.70 L 636.40 608.00 L 634.40 611.30 L 632.80 613.30 L 631.40 614.20 L 630.10 614.50 L 629.10 614.30 L 628.20 613.70 L 627.40 612.40 L 626.70 610.30 L 626.20 607.10 L 626.10 602.20 L 626.40 595.20 L 626.10 594.90 L 620.80 605.40 L 618.90 608.10 L 617.20 609.70 L 615.80 610.50 L 614.50 610.70 L 613.40 610.40 L 612.50 609.50 L 611.70 607.60 L 611.10 602.90 L 611.80 594.40 L 613.10 588.40 L 615.00 582.30 L 617.60 576.00 L 622.20 568.20 L 629.70 558.80 L 634.60 553.70 L 639.70 549.00 L 649.10 541.50 L 658.20 535.80 L 665.70 532.10 L 675.40 527.80 L 687.70 523.00 L 703.10 517.50 L 722.00 511.30 L 722.00 481.50 L 783.20 448.10" fill="#ffffff" fill-rule="evenodd" group-id="1" id="路径-52" node-id="8" stroke="#000000" stroke-linecap="butt" stroke-width="3.2" target-height="272.9" target-width="374.39996" target-x="411.2" target-y="341.6"></path><path d="M 792.00 307.10 L 791.80 308.80 L 791.20 310.30 L 790.10 311.60 L 788.80 312.60 L 787.30 313.30 L 785.60 313.50 L 783.90 313.30 L 782.40 312.60 L 781.10 311.60 L 780.00 310.30 L 779.40 308.80 L 779.20 307.10 L 779.40 305.40 L 780.00 303.90 L 781.10 302.60 L 782.40 301.50 L 783.90 300.90 L 785.60 300.70 L 787.30 300.90 L 788.80 301.50 L 790.10 302.60 L 791.20 303.90 L 791.80 305.40 L 792.00 307.10 Z" fill="#ffffff" fill-rule="evenodd" group-id="1" id="椭圆形" node-id="9" stroke="#2b4be4" stroke-linecap="butt" stroke-width="3.2" target-height="12.799988" target-width="12.799988" target-x="779.2" target-y="300.7"></path><path d="M 324.80 233.50 L 324.60 235.20 L 323.90 236.70 L 322.90 238.00 L 321.60 239.00 L 320.10 239.60 L 318.40 239.90 L 316.70 239.60 L 315.20 239.00 L 313.90 238.00 L 312.90 236.70 L 312.20 235.20 L 312.00 233.50 L 312.20 231.80 L 312.80 230.30 L 313.90 229.00 L 315.20 227.90 L 316.70 227.30 L 318.40 227.10 L 320.10 227.30 L 321.60 228.00 L 322.90 229.00 L 323.90 230.30 L 324.60 231.70 L 324.80 233.50 Z" fill="#ffffff" fill-rule="evenodd" group-id="1" id="椭圆形备份" node-id="10" stroke="#2b4be4" stroke-linecap="butt" stroke-width="3.2" target-height="12.799988" target-width="12.799988" target-x="312" target-y="227.1"></path><path d="M 721.90 430.30 L 721.90 486.40" fill="none" group-id="1" id="路径-53" node-id="11" stroke="#000000" stroke-linecap="butt" stroke-width="3.2" target-height="56.100006" target-width="0" target-x="721.9" target-y="430.3"></path><path d="M 598.40 395.10 L 591.60 410.30 L 588.10 418.90 L 578.60 444.70 L 572.60 462.30 L 556.50 514.70 L 540.40 570.00" fill="none" group-id="1" id="路径-54" node-id="12" stroke="#000000" stroke-linecap="butt" stroke-width="3.2" target-height="174.9" target-width="58" target-x="540.4" target-y="395.1"></path><path d="M 512.00 442.40 L 580.20 442.40" fill="none" group-id="1" id="路径-55" node-id="13" stroke="#000000" stroke-linecap="butt" stroke-width="3.2" target-height="0" target-width="68.20001" target-x="512" target-y="442.4"></path><g node-id="41"><g node-id="45"><path d="M 265.60 359.90 L 556.80 359.90 L 556.80 430.30 L 265.60 430.30 Z" fill="#d0d2d4" fill-rule="evenodd" group-id="1,2,6" id="矩形" node-id="16" stroke="none" target-height="70.399994" target-width="291.19998" target-x="265.6" target-y="359.9"></path><path d="M 310.40 395.10 L 309.70 398.80 L 307.60 401.90 L 304.50 404.00 L 300.80 404.70 L 297.40 404.10 L 296.00 403.40 L 294.00 401.90 L 292.50 399.90 L 291.40 396.80 L 291.20 395.10 L 291.80 391.70 L 292.50 390.20 L 294.00 388.30 L 296.00 386.80 L 297.40 386.10 L 300.80 385.50 L 304.20 386.10 L 305.60 386.80 L 307.60 388.30 L 309.10 390.20 L 309.80 391.70 L 310.40 395.10 Z" fill="#ffffff" fill-rule="evenodd" group-id="1,2,6" id="椭圆形" node-id="17" stroke="none" target-height="19.200012" target-width="19.199982" target-x="291.2" target-y="385.5"></path></g><g node-id="46"><path d="M 265.60 436.70 L 556.80 436.70 L 556.80 507.10 L 265.60 507.10 Z" fill="#d0d2d4" fill-rule="evenodd" group-id="1,2,7" id="矩形" node-id="19" stroke="none" target-height="70.399994" target-width="291.19998" target-x="265.6" target-y="436.7"></path><path d="M 310.40 471.90 L 309.70 475.60 L 307.60 478.70 L 304.50 480.80 L 300.80 481.50 L 297.40 480.90 L 296.00 480.20 L 294.00 478.70 L 292.50 476.70 L 291.40 473.60 L 291.20 471.90 L 291.80 468.50 L 292.50 467.00 L 294.00 465.10 L 296.00 463.60 L 297.40 462.90 L 300.80 462.30 L 304.20 462.90 L 305.60 463.60 L 307.60 465.10 L 309.10 467.00 L 309.80 468.50 L 310.40 471.90 Z" fill="#ffffff" fill-rule="evenodd" group-id="1,2,7" id="椭圆形" node-id="20" stroke="none" target-height="19.200012" target-width="19.199982" target-x="291.2" target-y="462.3"></path></g><g node-id="47"><path d="M 265.60 513.50 L 556.80 513.50 L 556.80 583.90 L 265.60 583.90 Z" fill="#d0d2d4" fill-rule="evenodd" group-id="1,2,8" id="矩形" node-id="22" stroke="none" target-height="70.400024" target-width="291.19998" target-x="265.6" target-y="513.5"></path><path d="M 310.40 548.70 L 309.70 552.40 L 307.60 555.50 L 304.50 557.60 L 300.80 558.30 L 297.40 557.70 L 296.00 557.00 L 294.00 555.50 L 292.50 553.50 L 291.40 550.40 L 291.20 548.70 L 291.80 545.30 L 292.50 543.80 L 294.00 541.90 L 296.00 540.40 L 297.40 539.70 L 300.80 539.10 L 304.20 539.70 L 305.60 540.40 L 307.60 541.90 L 309.10 543.80 L 309.80 545.30 L 310.40 548.70 Z" fill="#ffffff" fill-rule="evenodd" group-id="1,2,8" id="椭圆形" node-id="23" stroke="none" target-height="19.200012" target-width="19.199982" target-x="291.2" target-y="539.1"></path></g></g><g node-id="42"><g node-id="48"><path d="M 344.80 360.20 L 347.80 388.90 L 347.50 392.90 L 345.90 396.30 L 343.30 399.10 L 339.90 400.80 L 337.80 401.20 L 333.90 400.90 L 330.40 399.30 L 327.60 396.70 L 325.90 393.20 L 325.50 391.20 L 322.50 362.60 L 322.80 358.60 L 324.40 355.10 L 327.00 352.40 L 330.50 350.70 L 332.50 350.30 L 336.50 350.60 L 340.00 352.20 L 342.70 354.80 L 344.40 358.20 L 344.80 360.20 Z" fill="#ffffff" fill-rule="evenodd" group-id="1,3,9" id="矩形" node-id="25" stroke="#000000" stroke-linecap="butt" stroke-width="3.2" target-height="50.900024" target-width="25.299988" target-x="322.5" target-y="350.3"></path></g><g node-id="49"><path d="M 366.50 353.90 L 370.20 388.90 L 370.20 390.90 L 369.30 394.70 L 367.20 397.80 L 364.10 400.10 L 360.20 401.20 L 358.20 401.20 L 354.50 400.30 L 351.30 398.10 L 349.00 395.10 L 347.90 391.20 L 344.30 356.20 L 344.20 354.20 L 345.20 350.40 L 347.30 347.30 L 350.40 345.00 L 354.20 343.90 L 356.30 343.90 L 360.00 344.80 L 363.20 347.00 L 365.40 350.10 L 366.50 353.90 Z" fill="#ffffff" fill-rule="evenodd" group-id="1,3,10" id="矩形备份" node-id="26" stroke="#000000" stroke-linecap="butt" stroke-width="3.2" target-height="57.30002" target-width="26" target-x="344.2" target-y="343.9"></path></g><g node-id="50"><path d="M 388.90 350.70 L 391.90 379.30 L 391.70 383.30 L 390.10 386.80 L 387.40 389.50 L 384.00 391.20 L 382.00 391.60 L 378.00 391.30 L 374.50 389.80 L 371.80 387.10 L 370.10 383.70 L 369.70 381.70 L 366.70 353.00 L 366.90 349.10 L 368.50 345.60 L 371.20 342.80 L 374.60 341.10 L 376.60 340.70 L 380.60 341.00 L 384.10 342.60 L 386.80 345.20 L 388.50 348.70 L 388.90 350.70 Z" fill="#ffffff" fill-rule="evenodd" group-id="1,3,11" id="矩形备份-2" node-id="27" stroke="#000000" stroke-linecap="butt" stroke-width="3.2" target-height="50.899994" target-width="25.199982" target-x="366.7" target-y="340.7"></path></g><path d="M 411.30 344.30 L 414.30 372.90 L 414.10 376.90 L 412.50 380.40 L 409.80 383.10 L 406.40 384.80 L 404.40 385.20 L 400.40 384.90 L 396.90 383.40 L 394.20 380.70 L 392.50 377.30 L 392.10 375.30 L 389.10 346.60 L 389.30 342.70 L 390.90 339.20 L 393.60 336.40 L 397.00 334.70 L 399.00 334.30 L 403.00 334.60 L 406.50 336.20 L 409.20 338.80 L 410.90 342.30 L 411.30 344.30 Z" fill="#ffffff" fill-rule="evenodd" group-id="1,3,12" id="矩形备份-3" node-id="28" stroke="#000000" stroke-linecap="butt" stroke-width="3.2" target-height="50.900024" target-width="25.199982" target-x="389.1" target-y="334.3"></path></g><g node-id="43"><path d="M 565.70 275.20 L 565.40 282.00 L 564.80 288.70 L 563.70 295.10 L 562.30 301.40 L 560.50 307.60 L 557.60 315.10 L 554.20 322.30 L 550.30 329.10 L 545.90 335.70 L 541.00 341.90 L 535.70 347.60 L 529.90 352.90 L 523.80 357.80 L 517.20 362.30 L 510.40 366.20 L 503.20 369.50 L 495.60 372.40 L 489.50 374.20 L 483.20 375.70 L 476.70 376.70 L 470.10 377.40 L 463.30 377.60 L 456.40 377.40 L 449.80 376.70 L 443.40 375.70 L 437.10 374.20 L 430.90 372.40 L 423.40 369.50 L 416.20 366.20 L 409.30 362.30 L 402.80 357.80 L 396.60 352.90 L 390.90 347.60 L 385.50 341.90 L 380.60 335.70 L 376.20 329.10 L 372.30 322.30 L 369.00 315.10 L 366.10 307.60 L 364.30 301.40 L 362.80 295.10 L 361.80 288.70 L 361.10 282.00 L 360.90 275.20 L 361.10 268.40 L 361.80 261.70 L 362.80 255.30 L 364.30 249.00 L 366.10 242.80 L 369.00 235.30 L 372.30 228.10 L 376.20 221.30 L 380.60 214.70 L 385.50 208.50 L 390.90 202.80 L 396.60 197.50 L 402.80 192.60 L 409.30 188.10 L 416.20 184.20 L 423.40 180.90 L 430.90 178.00 L 437.10 176.20 L 443.40 174.70 L 449.80 173.70 L 456.40 173.00 L 463.30 172.80 L 470.10 173.00 L 476.70 173.70 L 483.20 174.70 L 489.50 176.20 L 495.60 178.00 L 503.20 180.90 L 510.40 184.20 L 517.20 188.10 L 523.80 192.60 L 529.90 197.50 L 535.70 202.80 L 541.00 208.50 L 545.90 214.70 L 550.30 221.30 L 554.20 228.10 L 557.60 235.30 L 560.50 242.80 L 562.30 249.00 L 563.70 255.30 L 564.80 261.70 L 565.40 268.40 L 565.70 275.20 Z" fill="#3251e6" fill-rule="evenodd" group-id="1,4" id="椭圆形" node-id="30" stroke="none" target-height="204.8" target-width="204.80002" target-x="360.9" target-y="172.8"></path><g node-id="52"><path d="M 518.90 252.80 L 460.00 311.60 L 458.30 312.90 L 456.40 313.70 L 454.40 313.90 L 452.30 313.70 L 450.40 312.90 L 448.70 311.60 L 405.70 268.60 L 404.40 266.90 L 403.60 265.00 L 403.40 262.90 L 403.60 260.90 L 404.40 259.00 L 405.70 257.30 L 407.40 256.00 L 409.30 255.20 L 411.40 254.90 L 413.40 255.20 L 415.30 256.00 L 417.00 257.30 L 454.40 294.60 L 507.50 241.40 L 509.30 240.10 L 511.20 239.40 L 513.20 239.10 L 515.20 239.40 L 517.10 240.10 L 518.90 241.40 L 520.20 243.20 L 520.90 245.10 L 521.20 247.10 L 520.90 249.10 L 520.20 251.00 L 518.90 252.80 Z" fill="#ffffff" fill-rule="evenodd" group-id="1,4,13" id="形状结合" node-id="31" stroke="none" target-height="74.79999" target-width="117.80002" target-x="403.4" target-y="239.1"></path></g></g><path d="M 715.20 292.70 L 715.00 296.50 L 714.30 300.10 L 713.30 303.60 L 711.90 307.00 L 708.10 313.20 L 703.00 318.70 L 699.00 321.80 L 694.70 324.40 L 689.80 326.60 L 682.10 328.70 L 673.60 329.50 L 665.10 328.70 L 657.40 326.60 L 652.50 324.40 L 648.20 321.80 L 644.20 318.70 L 639.10 313.20 L 635.30 307.00 L 633.90 303.60 L 632.90 300.10 L 632.20 296.50 L 632.00 292.70 L 632.20 288.90 L 632.90 285.20 L 633.90 281.70 L 635.30 278.40 L 639.10 272.10 L 644.20 266.70 L 648.20 263.60 L 652.50 260.90 L 657.40 258.80 L 665.10 256.60 L 673.60 255.90 L 682.10 256.60 L 689.80 258.80 L 694.70 260.90 L 699.00 263.60 L 703.00 266.70 L 708.10 272.10 L 711.90 278.40 L 713.30 281.70 L 714.30 285.20 L 715.00 288.90 L 715.20 292.70 Z" fill="#ffffff" fill-rule="evenodd" group-id="1" id="椭圆形" node-id="32" stroke="#000000" stroke-linecap="butt" stroke-width="3.2" target-height="73.600006" target-width="83.20001" target-x="632" target-y="255.9"></path><path d="M 630.80 259.90 L 631.60 262.20 L 632.90 264.10 L 634.60 265.60 L 636.90 266.90 L 639.80 267.80 L 643.50 268.40 L 648.20 268.40 L 654.10 267.80 L 661.40 266.50 L 670.30 264.20 L 673.50 266.70 L 675.40 268.70 L 676.50 270.30 L 677.10 272.10 L 677.10 274.20 L 676.50 276.50 L 681.70 276.20 L 686.00 276.30 L 689.50 276.90 L 692.40 277.80 L 694.80 279.00 L 696.80 280.50 L 698.30 282.30 L 699.50 284.40 L 699.90 287.10 L 699.60 288.60 L 697.30 293.20 L 689.80 304.90 L 688.40 308.00 L 687.60 310.90 L 687.20 313.70 L 687.40 316.40 L 687.90 318.80 L 688.80 320.80 L 690.10 322.60 L 691.60 323.80 L 693.40 324.60 L 696.40 325.10 L 699.60 325.20 L 703.00 324.70 L 706.30 323.80 L 709.50 322.40 L 715.70 318.60 L 721.00 313.70 L 723.10 310.90 L 724.90 308.00 L 726.10 304.90 L 727.20 300.80 L 727.70 296.40 L 727.70 291.90 L 727.10 287.10 L 726.00 282.00 L 724.10 276.50 L 725.40 270.70 L 726.00 265.40 L 726.10 260.40 L 725.60 255.70 L 724.50 251.40 L 722.90 247.20 L 720.80 243.20 L 718.10 239.40 L 714.70 235.80 L 711.10 232.70 L 707.20 230.10 L 703.10 228.20 L 698.70 226.80 L 693.90 225.90 L 688.80 225.70 L 683.20 226.00 L 677.00 227.10 L 670.30 228.90 L 666.00 228.50 L 661.50 228.60 L 656.80 229.30 L 652.00 230.60 L 646.90 232.60 L 642.80 234.50 L 636.40 238.90 L 634.40 240.80 L 631.50 245.10 L 630.00 250.10 L 629.80 253.00 L 630.00 256.20 L 630.80 259.90 Z" fill="#000000" fill-rule="evenodd" group-id="1" id="路径-51" node-id="33" stroke="none" target-height="99.500015" target-width="97.900024" target-x="629.8" target-y="225.7"></path><g node-id="44"><path d="M 648.40 297.00 L 639.30 297.00 L 643.90 283.10" fill="none" group-id="1,5" id="路径-57" node-id="34" stroke="#000000" stroke-linecap="butt" stroke-width="3.2" target-height="13.899994" target-width="9.100037" target-x="639.3" target-y="283.1"></path></g><path d="M 660.80 283.10 L 660.70 283.70 L 659.80 284.60 L 658.60 284.60 L 657.70 283.70 L 657.70 282.50 L 658.10 282.00 L 659.20 281.50 L 660.30 282.00 L 660.80 283.10 Z" fill="#d8d8d8" fill-rule="evenodd" group-id="1" id="椭圆形" node-id="35" stroke="#000000" stroke-linecap="butt" stroke-width="3.2" target-height="3.100006" target-width="3.0999756" target-x="657.7" target-y="281.5"></path><path d="M 648.40 310.90 L 653.10 310.90 L 653.10 307.10 L 657.30 307.10 L 657.30 303.40" fill="none" group-id="1" id="路径-58" node-id="36" stroke="#000000" stroke-linecap="butt" stroke-width="3.2" target-height="7.5" target-width="8.899963" target-x="648.4" target-y="303.4"></path></g></svg>