<svg xmlns="http://www.w3.org/2000/svg" fill="none" viewBox="0 0 1366 1366" height="1366" width="1366">
<g clip-path="url(#clip0_1_2)">
<path fill="#FCFCFC" d="M0 0H1365.33V1365.33H0V0ZM884.293 216.387C882.107 217.68 880.88 220 879.413 221.973C857.907 253 836.667 284.2 815.12 315.187C813.893 317.067 812.44 319.107 812.84 321.493C813.907 324.213 816.893 326.64 819.933 326.027C822.467 324.813 823.867 322.253 825.427 320.04C847.107 288.067 869.373 256.48 890.987 224.467C894.707 220.213 888.973 214.267 884.293 216.387ZM680.4 235.267C678.72 236.187 677.827 238 677.933 239.88C677.947 251.48 678.04 263.08 677.827 274.68C677.8 277 677.88 279.907 680.173 281.227C683.773 283.893 689.347 280.493 688.733 276.067C688.64 264.013 688.707 251.947 688.653 239.907C689 235.787 683.72 233.093 680.4 235.267ZM496.413 240.147C493 241.773 493.013 246.227 495.36 248.76C512.907 273.4 530.48 298.027 548.213 322.547C550.547 325.613 552.28 329.187 555.213 331.747C558.373 333.68 562.733 331.32 563.493 327.853C564.227 325.853 562.64 323.987 561.693 322.373C542.373 295.853 523.52 269 504.307 242.427C502.653 239.84 499.187 238.133 496.413 240.147ZM785.787 269.987C783.12 273.893 782.147 278.667 780.347 283C778.347 289.107 775.507 294.987 774.347 301.333C773.733 305.787 779.88 308.813 783.173 305.8C786 302.267 786.733 297.627 788.36 293.493C790.387 287.2 793.333 281.2 794.88 274.76C795.507 270.173 789.24 267.267 785.787 269.987ZM581.813 272.493C578.133 274.813 580.213 279.453 581.2 282.693C584.04 290.293 586.107 298.173 589.053 305.733C590.2 309.547 595.653 310.387 598.08 307.36C600.813 304.867 599 301.04 598.04 298.147C595.067 290.533 593.08 282.587 590.24 274.933C589.147 271.48 584.6 270.4 581.813 272.493ZM617.107 315.733C616.213 326.307 616.293 337.187 619.48 347.4C623.72 361.493 632.853 373.747 644.213 382.933C629.973 385.333 615.773 388.24 601.36 389.32C575.64 390.627 548.867 385.827 526.96 371.747C522.84 369.307 519.44 365.853 515.267 363.507C514.053 376.413 514.787 389.653 519.12 401.973C525.533 422.133 540.293 438.747 557.72 450.293C542.76 452.693 526.613 450.947 513.907 442.16C503.867 435.987 497.493 424.893 496.28 413.267C484.187 425.373 479.76 443.36 481.627 460.04C483.72 483.907 497.507 505.72 516.547 519.867C506.027 536.493 506.467 557.667 512.493 575.813C500.733 582.96 492.4 595.493 491.16 609.267C489.32 626.6 499.067 644.08 514.027 652.667C523.187 658.28 534.16 659.107 544.627 658.853C548.4 689.373 563.787 718.293 587.067 738.413C538.627 753.24 494.173 780.067 457.093 814.427C417.973 850.64 387.027 894.84 361.627 941.493C362.387 881.44 361.76 821.373 362.107 761.333C362.867 755.987 358.947 750.52 353.333 750.667C324.467 750.4 295.573 750.653 266.707 750.587C238.787 750.84 210.827 750.107 182.92 750.987C179.253 752.333 177.013 756.08 177.213 759.947C177.173 821.76 177.053 883.573 177.16 945.387C177.4 961.093 176.76 976.867 177.547 992.56C163.24 992.453 148.933 992.373 134.627 992.373C127.56 992.16 120.307 995.867 116.827 1002.11C109.413 1013.87 119.493 1030.83 133.24 1030.39C263.64 1030.04 394.04 1030.57 524.44 1030.11C633.88 1030.35 743.36 1030.25 852.8 1030.13C904.093 1030.55 955.387 1030.05 1006.68 1030.27C1081.37 1030.32 1156.07 1030.28 1230.76 1030.27C1240.77 1030.13 1249.16 1020.56 1248.53 1010.69C1248.29 1000.69 1239.19 992.467 1229.35 992.52C1196.36 992.693 1163.36 992.373 1130.37 992.667C1131 990.28 1131.39 987.84 1131.35 985.387C1131.24 952.933 1131.4 920.48 1131.31 888.027C1131.28 885.773 1130.75 883.24 1128.85 881.84C1125.79 879.413 1121.64 880.28 1118.05 880.187C1120.35 864.6 1122.32 848.96 1124.25 833.333C1125.77 826.653 1119.16 822.253 1113.39 821.52C1107.76 820.253 1099.56 821.453 1098.03 828.04C1095.67 845.333 1093.19 862.613 1090.93 879.92C1087.05 879.893 1083.17 879.88 1079.31 879.667C1075.49 867.293 1070.92 855.147 1066.31 843.053C1063.96 835.627 1055.49 830.84 1048 833.493C1040.89 835.427 1037.56 843.76 1039.57 850.507C1042.15 860.427 1045.48 870.187 1049.19 879.733C1048.31 879.707 1046.57 879.627 1045.71 879.587C1042.76 880.067 1039.09 879.907 1037.19 882.64C1035.69 884.56 1035.87 887.093 1035.85 889.387C1036.65 920.12 1035.57 950.893 1036.79 981.627C1028.79 962.08 1018.45 943.6 1008 925.28C982.373 882.253 952.173 841.427 914.64 807.987C880.427 777.053 839.88 752.947 795.867 738.92C819.373 719.44 833.707 690.253 837.64 660.2C846.693 661.773 856.147 660.187 864.413 656.267C879.827 648.667 890.613 632.04 890.467 614.747C890.747 602.893 885.133 591.413 876.653 583.333C874.493 580.973 871.053 579.827 869.293 577.253C876.84 556.32 881.787 534.24 881.453 511.907C881.2 491.613 877.2 470.28 864.68 453.787C872.36 455.36 881.08 456.587 888.173 452.427C895.68 448.027 897.507 437.573 893.76 430.12C890.547 423.133 883.32 419.307 876.387 416.933C864.653 413.107 851.6 412.307 839.827 416.373C843.747 411.093 846.32 404.973 848.387 398.773C850.187 393.267 851.747 387.333 850.44 381.547C848.667 374.707 842.493 369.92 835.987 367.88C826.813 364.933 815.96 364.613 807.773 370.347C801.493 374.973 799.56 383.267 800.28 390.693C795.84 384.36 789.64 379.6 783.52 375.013C762.28 359.787 736.28 353.187 710.733 349.76C697.813 347.867 684.653 348.493 671.813 346C650.907 342.32 631.253 331.587 617.107 315.733ZM460.56 328.787C457.147 330.067 456.493 334.653 458.787 337.28C464.107 344.72 470.373 351.427 475.76 358.827C477.827 361.28 479.533 364.4 482.667 365.64C486.093 366.333 488.973 363.147 489.587 360.027C489.213 356.933 486.907 354.667 485.053 352.373C479.227 345.693 474.133 338.413 468.427 331.653C466.64 329.36 463.48 327.24 460.56 328.787ZM904.52 328.56C901.227 329.933 899.307 333.213 897.067 335.8C891.64 343.2 885.627 350.133 880.307 357.6C877.133 362.253 884.387 369.08 888.493 364.44C896.173 355.627 903.293 346.253 910.28 336.867C913.76 333.027 908.933 327.36 904.52 328.56ZM423.227 332.587C419.24 333.667 417.653 338.96 420.827 341.813C431.28 353.587 441.733 365.373 451.88 377.427C453.373 379.053 454.987 380.853 457.307 381.267C460.627 381.28 464.173 378.2 463.28 374.667C461.867 370.88 458.72 368.16 456.187 365.133C448 355.56 439.533 346.213 431.36 336.627C429.307 334.44 426.613 331.187 423.227 332.587ZM940.52 333.747C929.013 346.32 917.84 359.32 907 372.48C902.387 377.813 911.107 384.707 915.467 379.627C925.973 367.413 936.413 355.093 947.173 343.08C948.853 341.227 950.707 338.707 949.6 336.08C948.387 332.48 943.333 331.413 940.52 333.747ZM327.187 426C324.533 427.213 323.48 430.4 324.253 433.107C325.507 436.173 329.133 436.733 331.947 437.573C363.56 445.56 395.08 453.947 426.613 462.24C429.92 463.373 434.053 461.027 433.987 457.347C434.707 452.413 428.733 451.573 425.293 450.4C395.453 442.52 365.587 434.733 335.733 426.893C332.96 426.4 329.973 424.747 327.187 426ZM1033.93 426.24C1007.12 433.467 980.32 440.747 953.44 447.707C948.227 449.293 942.8 450.267 937.733 452.32C934.88 453.68 934.56 457.533 935.933 460.053C937.787 462.48 941.133 462.96 943.92 462.053C975.8 453.653 1007.61 444.907 1039.51 436.493C1043.4 435.773 1046.09 430.72 1043.2 427.507C1041.07 424.44 1036.95 425.373 1033.93 426.24ZM350.92 469.307C348.427 470.987 347.36 474.747 349.267 477.253C351.667 479.88 355.493 480.04 358.773 480.68C370.373 482.347 381.787 485.293 393.44 486.547C397.44 486.987 400.48 482.067 398.533 478.627C397.413 475.947 394.133 475.707 391.693 475.053C380.173 473 368.667 470.867 357.16 468.84C355.107 468.653 352.707 467.88 350.92 469.307ZM977.107 475.027C975.133 475.293 973.347 476.173 971.56 476.947C971.013 479.347 970.12 482.107 971.6 484.373C973.267 486.573 976.227 487.12 978.8 486.467C991.187 484.32 1003.53 481.92 1015.92 479.747C1018.52 479.453 1020.67 477.133 1020.84 474.533C1021.41 471.24 1018.08 468.013 1014.83 468.547C1002.21 470.467 989.72 473.093 977.107 475.027ZM242.28 581.267C244.16 595.893 253.787 609.027 266.56 616.16C283.533 625.013 304.853 622.693 320.787 612.64C323.68 610.84 323.88 606.053 321.107 604.067C318.453 602.12 314.827 602.827 312.173 604.4C305.56 603.627 298.6 603.893 292.467 600.907C279.707 595.6 271.04 582.76 269.133 569.293C268.333 559.907 269.973 550 274.973 541.907L275.16 540.653L275.293 540.853C275.667 535.56 283.52 535.893 283.653 530.453C283.813 526.027 278.427 523.733 274.827 525.68C253.107 534.013 239.293 558.333 242.28 581.267ZM1079.01 529.52C1078.64 533.067 1082.17 535.227 1084.99 536.453C1087.68 541.52 1090.73 546.48 1092.05 552.133C1096.75 568.507 1089.99 587.48 1075.92 597.133C1068.6 602.48 1059.44 604.2 1050.56 604.453C1048.15 603.547 1045.04 602.08 1042.75 604.027C1039.4 605.933 1040.04 611.067 1043.15 612.88C1058.57 622.733 1079.03 624.933 1095.8 617.173C1110.72 609.893 1120.51 593.827 1121.2 577.373C1121.95 555.133 1108.13 532.267 1086.64 525.027C1083.39 523.627 1079.24 525.933 1079.01 529.52ZM456.2 528.347C431.427 535.333 406.547 541.96 381.707 548.653C379.693 549.32 377.187 550.253 376.587 552.52C375.293 556.653 379.96 561.213 384.053 559.653C409.813 552.987 435.44 545.733 461.04 538.467C464.467 537.907 466.533 534.067 464.987 530.92C463.72 527.32 459.227 527.347 456.2 528.347ZM917.64 528.2C914.427 529.96 914.04 535.547 917.547 537.213C922.427 539.707 928 540.32 933.213 541.933C954.08 547.813 975.213 552.693 996.067 558.667C998.373 559.333 1001.39 559.933 1003.15 557.76C1006.24 555.08 1004.97 549.387 1000.88 548.547C975.787 541.667 950.627 535.04 925.493 528.333C922.96 527.853 920.027 526.8 917.64 528.2ZM225.76 534.92C218.587 543.413 215.627 554.68 214.133 565.493C213.573 568.907 213.56 573.6 217.467 575.04C221.173 576.84 225.293 573.4 224.973 569.507C225.187 559.293 229.267 549.787 234.173 541.027C236.853 536.293 229.547 531.267 225.76 534.92ZM1131.08 534.747C1128.8 535.947 1127.91 538.933 1129.21 541.173C1131.85 546.373 1134.93 551.413 1136.39 557.133C1138.15 562.213 1137.67 567.747 1139.21 572.853C1141.52 577.053 1148.68 575.373 1148.97 570.613C1149.48 559.4 1145.63 548.293 1140.24 538.573C1138.69 535.227 1134.64 532.213 1131.08 534.747ZM457.853 560.72C448.32 563.173 438.893 566.027 429.387 568.56C426.933 569.28 424.32 569.96 422.373 571.733C419.867 575.52 423.2 581.533 427.947 580.32C438.32 578.08 448.333 574.387 458.707 572.08C462.133 571.4 466.827 569.667 466.107 565.293C466.187 561.053 461.293 559.24 457.853 560.72ZM914.067 565.44C915.76 570.693 921.893 571.067 926.387 572.373C935.453 574.44 944.253 577.547 953.32 579.627C956.907 580.573 960.173 576.827 959.64 573.36C959.693 570.32 956.307 569.28 954 568.44C945.027 565.68 935.867 563.56 926.88 560.88C924.147 560.133 921.387 559.267 918.533 559.427C915.72 560.16 915.053 563.133 914.067 565.44ZM223.107 608.453C220.573 610.4 220.507 614.04 222.227 616.56C229.667 628.96 240.107 641.16 254.587 645.067C258.88 646.52 263.28 641.747 261.36 637.627C259.08 635.107 255.653 634.187 252.76 632.613C243.427 628.107 236.853 619.653 231.733 610.907C230.267 607.667 226.067 606.493 223.107 608.453ZM1133.79 608.333C1131.76 610.427 1130.43 613.053 1128.83 615.453C1123.85 623.253 1116.95 630.107 1108.36 633.773C1106 634.987 1102.97 635.893 1101.92 638.573C1100.63 642.667 1105.45 646.867 1109.35 645.187C1124.08 640.413 1135.55 628.267 1142.17 614.6C1144.6 609.72 1137.77 604.747 1133.79 608.333ZM389.587 610.973C387.173 612.053 385.56 614.747 386.307 617.413C387.667 620.493 390.8 622.173 393.293 624.227C420.187 645.267 447.013 666.4 473.733 687.653C475.787 689.16 478.2 691.2 480.933 690.253C484.853 689.267 486.8 683.627 483.373 680.987C455.933 658.907 428.093 637.32 400.413 615.547C397.28 613.333 393.84 609.2 389.587 610.973ZM984.253 625.667C980.067 627.92 976.627 631.293 972.68 633.92C947.773 652.6 923.053 671.52 898.173 690.24C896.387 691.52 894.867 693.507 895.147 695.84C895.587 700.133 901.627 702.4 904.773 699.347C932.173 678.773 959.467 658.067 986.88 637.52C988.907 635.813 991.493 634.48 992.6 631.947C993.613 627.52 988.24 623.267 984.253 625.667ZM422.04 678.653C422.973 680.493 423.8 682.52 425.6 683.733C445.6 698.373 465.453 713.253 485.44 727.88C489.76 731.547 496.373 725.773 493.84 720.987C491.227 717.693 487.44 715.64 484.16 713.12C469.467 702.08 454.6 691.267 439.867 680.28C436.453 677.84 433.333 674.747 429.32 673.333C425.733 672.333 423.573 676.093 422.04 678.653ZM952.213 684.213C935.253 695.987 918.92 708.707 902.253 720.92C897.813 724.48 892.667 727.213 888.72 731.347C884.76 735.853 891.96 742.933 896.573 739.253C916.04 724.453 935.92 710.187 955.44 695.453C957.707 693.6 961.147 691.453 960.12 687.987C959.453 684.533 955.32 682.36 952.213 684.213Z"></path>
<path fill="#002A67" d="M884.293 216.387C888.973 214.267 894.706 220.213 890.986 224.467C869.373 256.48 847.107 288.067 825.427 320.04C823.867 322.253 822.467 324.813 819.933 326.027C816.893 326.64 813.907 324.213 812.84 321.493C812.44 319.107 813.893 317.067 815.12 315.187C836.667 284.2 857.907 253 879.413 221.973C880.88 220 882.106 217.68 884.293 216.387Z"></path>
<path fill="#002A67" d="M680.4 235.267C683.72 233.093 689 235.786 688.653 239.906C688.707 251.946 688.64 264.013 688.733 276.067C689.347 280.493 683.773 283.893 680.173 281.227C677.88 279.907 677.8 277 677.827 274.68C678.04 263.08 677.947 251.48 677.933 239.88C677.827 238 678.72 236.187 680.4 235.267Z"></path>
<path fill="#012F70" d="M496.413 240.147C499.187 238.133 502.653 239.84 504.307 242.427C523.52 269 542.373 295.853 561.693 322.373C562.64 323.987 564.227 325.853 563.493 327.853C562.733 331.32 558.373 333.68 555.213 331.747C552.28 329.187 550.547 325.613 548.213 322.547C530.48 298.027 512.907 273.4 495.36 248.76C493.013 246.227 493 241.773 496.413 240.147Z"></path>
<path fill="#012B69" d="M785.787 269.987C789.24 267.267 795.507 270.173 794.88 274.76C793.333 281.2 790.387 287.2 788.36 293.493C786.733 297.627 786 302.267 783.173 305.8C779.88 308.813 773.733 305.787 774.347 301.333C775.507 294.987 778.347 289.107 780.347 283C782.147 278.667 783.12 273.893 785.787 269.987Z"></path>
<path fill="#012B69" d="M904.52 328.56C908.933 327.36 913.76 333.027 910.28 336.867C903.293 346.253 896.173 355.627 888.493 364.44C884.387 369.08 877.133 362.253 880.307 357.6C885.627 350.133 891.64 343.2 897.067 335.8C899.307 333.213 901.227 329.933 904.52 328.56Z"></path>
<path fill="#00276B" d="M581.813 272.493C584.6 270.4 589.147 271.48 590.24 274.933C593.08 282.587 595.067 290.533 598.04 298.147C599 301.04 600.813 304.867 598.08 307.36C595.653 310.387 590.2 309.547 589.053 305.733C586.107 298.173 584.04 290.293 581.2 282.693C580.213 279.453 578.133 274.813 581.813 272.493Z"></path>
<path fill="#012766" d="M617.107 315.733C631.253 331.587 650.907 342.32 671.813 346C684.653 348.493 697.813 347.867 710.733 349.76C736.28 353.187 762.28 359.787 783.52 375.013C789.64 379.6 795.84 384.36 800.28 390.693C799.56 383.267 801.493 374.973 807.773 370.347C815.96 364.613 826.813 364.933 835.987 367.88C842.493 369.92 848.667 374.707 850.44 381.547C851.747 387.333 850.187 393.267 848.387 398.773C846.32 404.973 843.747 411.093 839.827 416.373C851.6 412.307 864.653 413.107 876.387 416.933C883.32 419.307 890.547 423.133 893.76 430.12C897.507 437.573 895.68 448.027 888.173 452.427C881.08 456.587 872.36 455.36 864.68 453.787C877.2 470.28 881.2 491.613 881.453 511.907C881.787 534.24 876.84 556.32 869.293 577.253C871.053 579.827 874.493 580.973 876.653 583.333C885.133 591.413 890.747 602.893 890.467 614.747C890.613 632.04 879.827 648.667 864.413 656.267C856.147 660.187 846.693 661.773 837.64 660.2C833.707 690.253 819.373 719.44 795.867 738.92C839.88 752.947 880.427 777.053 914.64 807.987C952.173 841.427 982.373 882.253 1008 925.28C1018.45 943.6 1028.79 962.08 1036.79 981.627C1035.57 950.893 1036.65 920.12 1035.85 889.387C1035.87 887.093 1035.69 884.56 1037.19 882.64C1039.09 879.907 1042.76 880.067 1045.71 879.587C1047.73 882.973 1047.31 886.8 1046.65 890.493C1046.52 892.387 1046.47 894.293 1046.45 896.227C1052.33 896.32 1058.24 895.88 1064.12 896.427C1066.67 896.613 1068.89 898.707 1069.24 901.267C1069.25 903.987 1066.88 906.453 1064.23 906.76C1058.47 907.213 1052.69 906.733 1046.95 906.787C1046.75 930.56 1046.99 954.333 1046.97 978.107C1046.29 980.827 1045.6 983.573 1044.41 986.133C1040.72 990.48 1034.75 989.973 1029.65 990.787C1020.25 970.24 1010.13 949.96 998.48 930.573C972.867 887.827 942.72 847.16 905.16 814.133C870.72 784.013 830.267 760.653 786.44 747.293C783.507 746.867 781.213 749.493 778.773 750.733C773.027 754.52 766.76 757.467 760.507 760.307C757.213 760.88 752.293 759.627 750.88 763.693C750.627 763.853 750.107 764.16 749.84 764.307C748.213 787.987 728.787 808.88 705.333 812.267C695.907 813.627 686.333 813.173 676.88 812.4C673.387 811.707 669.907 810.96 666.453 810.16C650.413 803.707 636.933 790.16 632.573 773.213C631.56 769.787 631.8 766.04 630.4 762.773C621.387 759.333 612.267 755.84 604.253 750.347C601.48 748.747 598.653 745.813 595.173 747.16C574.147 753.28 553.907 762 534.627 772.373C506.813 787.347 481.32 806.44 458.467 828.2C427.96 858.107 402.44 892.84 380.853 929.627C374.28 940.747 368.107 952.093 362.387 963.68C361.8 963.627 360.613 963.52 360.013 963.467C359.693 972.36 360.32 981.28 359.653 990.16C359.627 994.24 355.6 996.307 352.907 998.667C352.4 998.027 351.893 997.413 351.387 996.813C351.933 995.733 352.48 994.667 353.027 993.627C352.653 993.347 351.88 992.8 351.507 992.52C351.373 923.893 351.347 855.267 351.467 786.653C351.44 778.16 351.413 769.667 351.173 761.187C347.867 761.147 344.547 761.147 341.24 761.173C340.867 838.213 341.24 915.267 341.093 992.32C340.413 992.96 339.733 993.6 339.053 994.253C340.653 994.547 342.24 994.84 343.84 995.16C340.133 996.667 336.373 999.28 332.187 998.267C330.227 997.96 328.28 997.6 326.32 997.28C327.693 995.373 329.093 993.48 330.373 991.52C330.547 914.747 330.64 837.96 330.347 761.173C282.84 760.987 235.32 761.133 187.8 761.147C187.92 758.28 189.413 755.84 191.213 753.72C188.333 753.187 185.507 752.387 182.92 750.987C210.827 750.107 238.787 750.84 266.707 750.587C295.573 750.653 324.467 750.4 353.333 750.667C358.947 750.52 362.867 755.987 362.107 761.333C361.76 821.373 362.387 881.44 361.627 941.493C387.027 894.84 417.973 850.64 457.093 814.427C494.173 780.067 538.627 753.24 587.067 738.413C563.787 718.293 548.4 689.373 544.627 658.853C534.16 659.107 523.187 658.28 514.027 652.667C499.067 644.08 489.32 626.6 491.16 609.267C492.4 595.493 500.733 582.96 512.493 575.813C506.467 557.667 506.027 536.493 516.547 519.867C497.507 505.72 483.72 483.907 481.627 460.04C479.76 443.36 484.187 425.373 496.28 413.267C497.493 424.893 503.867 435.987 513.907 442.16C526.613 450.947 542.76 452.693 557.72 450.293C540.293 438.747 525.533 422.133 519.12 401.973C514.787 389.653 514.053 376.413 515.267 363.507C519.44 365.853 522.84 369.307 526.96 371.747C548.867 385.827 575.64 390.627 601.36 389.32C615.773 388.24 629.973 385.333 644.213 382.933C632.853 373.747 623.72 361.493 619.48 347.4C616.293 337.187 616.213 326.307 617.107 315.733ZM627 337.32C628.08 349.107 634.587 359.56 642.387 368.147C647.72 374.16 655.493 377.147 661.227 382.72C663.733 384.68 663.32 388.693 661.8 391.16C657.693 392.36 653.373 392.347 649.16 392.867C640.613 393.52 632.373 396.053 623.88 397.08C615.613 399.187 607.053 398.627 598.653 399.693C590.2 400.707 581.76 399.067 573.32 398.76C568.333 398.52 563.613 396.72 558.667 396.253C552.173 395.733 546.507 392.28 540.467 390.16C535.08 388.36 531.133 383.573 525.413 382.627C527.373 397.293 532.827 411.56 542.12 423.147C546.173 428.44 551.6 432.387 556.453 436.893C561.8 441.64 569.053 443.573 574.253 448.467C575.773 451.187 574.573 455.56 571.507 456.76C564.587 460.027 556.813 460.533 549.347 461.533C541.333 462.787 533.347 460.773 525.493 459.493C518.173 456.76 511.027 453.28 504.8 448.493C500.507 445.413 497.867 440.64 493.747 437.373C490.373 447.693 492.08 458.76 493.84 469.213C497.653 484.053 505.987 497.6 517.333 507.893C520.4 510.693 524.493 512.28 527.227 515.453C529.92 519.52 525.6 523.027 524.147 526.573C522.547 530.893 520.667 535.133 519.427 539.587C517.813 549.787 519.507 560.093 520.773 570.227C528.387 569.027 536.067 569.413 543.733 569.053C544.133 560.36 542.56 551.56 544.373 542.96C546.52 541.027 549.293 540.013 551.587 538.267C554.627 534.867 554.827 529.36 558.813 526.733C563.827 524.653 569.427 525.587 574.707 525.427C587.24 525.787 599.76 524.227 611.973 521.52C640.2 517.027 667.373 507.827 694.227 498.293C720.2 488.013 745.907 475.107 765.853 455.147C771.307 450.147 778.373 447.2 785.533 445.653C805.333 443.2 824.707 460.24 825.467 480.053C827.04 498.6 827.12 517.32 825.747 535.88C825.493 538.56 828.96 538.053 830.627 538.733C834.987 539.027 838.213 542.92 839.653 546.733C840.48 554.56 839.493 562.453 840.253 570.293C847.467 570.333 854.627 572.813 861.827 571.4C863.32 565.307 864.373 559.107 866.28 553.133C870.067 542.053 870.2 530.227 871.52 518.707C872.68 508.8 870.467 499 868.947 489.28C866.227 478.173 862.093 467.307 855.507 457.893C853.213 454.373 850.187 451.347 848.347 447.547C848.52 444.56 850.947 440.507 854.507 441.467C863.32 443.027 872.133 446.12 881.173 445.12C885.027 444.747 887.76 440.107 886.107 436.587C882.533 429.933 875.373 426.04 868.107 424.907C855.773 422.773 842.64 424.4 831.467 430.133C827.533 432.573 821.373 428.84 822.68 424.133C824.08 419.773 828 416.893 830.373 413.08C834.947 405.933 838.627 398.093 840.613 389.813C841.28 387.133 841.52 383.96 839.493 381.773C833.2 375.227 822.253 374.333 814.453 378.453C805.96 386.387 814.72 398.16 811.627 407.6C809.867 409.667 806.12 412.107 803.813 409.467C796.573 401.667 789.973 393.187 781.613 386.493C773.427 378.827 762.947 374.493 752.84 370C737.92 364.573 722.227 361.573 706.56 359.28C693.253 358.613 679.987 357.413 666.787 355.653C655.56 353.147 644.613 348.827 635.16 342.187C632.573 340.36 629.853 338.707 627 337.32ZM783.84 457.12C777.747 458.64 773.067 463.107 768.627 467.267C753.24 482.8 733.36 492.653 713.787 501.8C691.093 511.867 667.413 519.6 643.4 525.813C617.533 532.107 591.08 537.347 564.32 536.293C563.92 539.653 564.333 543.387 562.44 546.373C560.293 549.213 556.387 548.907 553.267 549.453C552.973 564.96 553.427 580.467 553.413 595.973C553.693 621.6 551.413 647.8 558.12 672.853C565.707 702.44 586.053 728.413 612.88 743.013C639.533 758.4 671 763.2 701.4 762.08C726.6 761.16 751.933 754.813 773.52 741.533C796.347 728.307 814.267 706.52 822.093 681.253C830.507 654.573 829.027 626.28 829.04 598.68C828.813 581.667 829.413 564.627 828.693 547.627C823.76 547.547 816.747 546.053 816.36 540.013C815.92 527.133 816.507 514.227 816.28 501.347C816.107 491.267 817.173 480.64 812.827 471.227C807.947 460.613 795.213 454.307 783.84 457.12ZM522.44 582.64C511.533 587.76 502.693 598.347 501.693 610.613C500.453 623.12 507.44 635.533 517.867 642.2C525.333 647.267 534.573 648.613 543.427 648.4C543.347 642.133 542.933 635.88 542.987 629.613C535.44 629.72 527.68 627.107 522.88 621.04C517.413 614.68 521.053 603.107 529.24 601.08C534.027 599.707 538.92 601.44 543.173 603.627C542.893 595.613 542.973 587.613 542.96 579.613C536.053 579.693 528.8 579.493 522.44 582.64ZM839.613 581.733C839.44 588.827 839.56 595.92 839.64 603.013C843.48 601.28 847.813 600.16 851.973 601.533C859.667 603.747 863.173 613.693 859.467 620.56C855.573 627.64 847.627 631.76 839.747 632.4C839.067 638.28 838.96 644.227 838.907 650.147C845.973 650.147 853.52 650.173 859.88 646.6C871.573 640.587 880.2 628.093 879.933 614.72C880.267 603.373 873.16 592.787 863.733 586.96C856.64 582.173 847.92 581.493 839.613 581.733ZM531.413 615.493C534.44 618.6 539.307 618.52 543.347 618.893C544 614.413 538.76 613.76 535.84 612.027C533.693 609.84 529.307 613.013 531.413 615.493ZM839.12 621.053C843.773 621.08 848.667 618.907 850.867 614.613C851 612.373 850.027 611.36 847.933 611.56C843.227 612.387 838.52 615.747 839.12 621.053ZM642.227 766.64C643.96 778.613 651.653 789.173 661.747 795.587C671.16 801.4 682.56 802.48 693.387 802.2C703.36 802.173 713.733 800.04 721.827 793.893C730.68 787.96 736.267 778.253 738.733 768.04C731.32 769.48 723.747 770.213 716.44 772.173C716.613 772.827 716.933 774.147 717.107 774.8C716.707 774.16 715.92 772.867 715.533 772.227C697.573 773.52 679.52 773.213 661.653 770.853C655.2 769.373 648.547 768.693 642.227 766.64Z"></path>
<path fill="#012D71" d="M460.56 328.787C463.48 327.24 466.64 329.36 468.427 331.653C474.133 338.413 479.227 345.693 485.053 352.373C486.907 354.667 489.213 356.933 489.587 360.027C488.973 363.147 486.093 366.333 482.667 365.64C479.533 364.4 477.827 361.28 475.76 358.827C470.373 351.427 464.107 344.72 458.787 337.28C456.493 334.653 457.147 330.067 460.56 328.787Z"></path>
<path fill="#012E6F" d="M423.227 332.587C426.613 331.187 429.307 334.44 431.36 336.627C439.533 346.213 448 355.56 456.187 365.133C458.72 368.16 461.867 370.88 463.28 374.667C464.173 378.2 460.627 381.28 457.307 381.267C454.987 380.853 453.373 379.053 451.88 377.427C441.733 365.373 431.28 353.587 420.827 341.813C417.653 338.96 419.24 333.667 423.227 332.587Z"></path>
<path fill="#002968" d="M940.52 333.747C943.333 331.413 948.387 332.48 949.6 336.08C950.707 338.707 948.853 341.227 947.173 343.08C936.413 355.093 925.973 367.413 915.467 379.627C911.107 384.707 902.387 377.813 907 372.48C917.84 359.32 929.013 346.32 940.52 333.747Z"></path>
<path fill="#003073" d="M627 337.32C629.853 338.707 632.573 340.36 635.16 342.187C644.613 348.827 655.56 353.147 666.787 355.653C679.987 357.413 693.253 358.613 706.56 359.28C722.227 361.573 737.92 364.573 752.84 370C762.947 374.493 773.427 378.827 781.613 386.493C789.973 393.187 796.573 401.667 803.813 409.467C806.12 412.107 809.867 409.667 811.627 407.6C814.72 398.16 805.96 386.387 814.453 378.453C822.253 374.333 833.2 375.227 839.493 381.773C841.52 383.96 841.28 387.133 840.613 389.813C838.627 398.093 834.947 405.933 830.373 413.08C828 416.893 824.08 419.773 822.68 424.133C821.373 428.84 827.533 432.573 831.467 430.133C842.64 424.4 855.773 422.773 868.107 424.907C875.373 426.04 882.533 429.933 886.107 436.587C887.76 440.107 885.027 444.747 881.173 445.12C872.133 446.12 863.32 443.027 854.507 441.467C850.947 440.507 848.52 444.56 848.347 447.547C850.187 451.347 853.213 454.373 855.507 457.893C862.093 467.307 866.227 478.173 868.947 489.28C870.467 499 872.68 508.8 871.52 518.707C870.2 530.227 870.067 542.053 866.28 553.133C864.373 559.107 863.32 565.307 861.827 571.4C854.627 572.813 847.467 570.333 840.253 570.293C839.493 562.453 840.48 554.56 839.653 546.733C838.213 542.92 834.987 539.027 830.627 538.733C828.96 538.053 825.493 538.56 825.747 535.88C827.12 517.32 827.04 498.6 825.467 480.053C824.707 460.24 805.333 443.2 785.533 445.653C778.373 447.2 771.307 450.147 765.853 455.147C745.907 475.107 720.2 488.013 694.227 498.293C667.373 507.827 640.2 517.027 611.973 521.52C599.76 524.227 587.24 525.787 574.707 525.427C569.427 525.587 563.827 524.653 558.813 526.733C554.827 529.36 554.627 534.867 551.587 538.267C549.293 540.013 546.52 541.027 544.373 542.96C542.56 551.56 544.133 560.36 543.733 569.053C536.067 569.413 528.387 569.027 520.773 570.227C519.507 560.093 517.813 549.787 519.427 539.587C520.667 535.133 522.547 530.893 524.147 526.573C525.6 523.027 529.92 519.52 527.227 515.453C524.493 512.28 520.4 510.693 517.333 507.893C505.987 497.6 497.653 484.053 493.84 469.213C492.08 458.76 490.373 447.693 493.747 437.373C497.867 440.64 500.507 445.413 504.8 448.493C511.027 453.28 518.173 456.76 525.493 459.493C533.347 460.773 541.333 462.787 549.347 461.533C556.813 460.533 564.587 460.027 571.507 456.76C574.573 455.56 575.773 451.187 574.253 448.467C569.053 443.573 561.8 441.64 556.453 436.893C551.6 432.387 546.173 428.44 542.12 423.147C532.827 411.56 527.373 397.293 525.413 382.627C531.133 383.573 535.08 388.36 540.467 390.16C546.507 392.28 552.173 395.733 558.667 396.253C563.613 396.72 568.333 398.52 573.32 398.76C581.76 399.067 590.2 400.707 598.653 399.693C607.053 398.627 615.613 399.187 623.88 397.08C632.373 396.053 640.613 393.52 649.16 392.867C653.373 392.347 657.693 392.36 661.8 391.16C663.32 388.693 663.733 384.68 661.227 382.72C655.493 377.147 647.72 374.16 642.387 368.147C634.587 359.56 628.08 349.107 627 337.32Z"></path>
<path fill="#002663" d="M327.187 426C329.973 424.747 332.96 426.4 335.733 426.893C365.587 434.733 395.453 442.52 425.293 450.4C428.733 451.573 434.707 452.413 433.987 457.347C434.053 461.027 429.92 463.373 426.613 462.24C395.08 453.947 363.56 445.56 331.947 437.573C329.133 436.733 325.507 436.173 324.253 433.107C323.48 430.4 324.533 427.213 327.187 426Z"></path>
<path fill="#002365" d="M1033.93 426.24C1036.95 425.373 1041.07 424.44 1043.2 427.507C1046.09 430.72 1043.4 435.773 1039.51 436.493C1007.61 444.907 975.8 453.653 943.92 462.053C941.133 462.96 937.787 462.48 935.933 460.053C934.56 457.533 934.88 453.68 937.733 452.32C942.8 450.267 948.227 449.293 953.44 447.707C980.32 440.747 1007.12 433.467 1033.93 426.24Z"></path>
<path fill="#FEEAD0" d="M783.84 457.12C795.213 454.307 807.947 460.613 812.827 471.227C817.173 480.64 816.107 491.267 816.28 501.347C816.507 514.227 815.92 527.133 816.36 540.013C816.747 546.053 823.76 547.547 828.693 547.627C829.413 564.627 828.813 581.667 829.04 598.68C829.027 626.28 830.507 654.573 822.093 681.253C814.267 706.52 796.347 728.307 773.52 741.533C751.933 754.813 726.6 761.16 701.4 762.08C671 763.2 639.533 758.4 612.88 743.013C586.053 728.413 565.707 702.44 558.12 672.853C551.413 647.8 553.693 621.6 553.413 595.973C553.427 580.467 552.973 564.96 553.267 549.453C556.387 548.907 560.293 549.213 562.44 546.373C564.333 543.387 563.92 539.653 564.32 536.293C591.08 537.347 617.533 532.107 643.4 525.813C667.413 519.6 691.093 511.867 713.787 501.8C733.36 492.653 753.24 482.8 768.627 467.267C773.067 463.107 777.747 458.64 783.84 457.12ZM636.08 562.8C620.88 564.067 605.72 565.773 590.507 566.787C587.973 566.72 585.293 568.067 584.667 570.707C583.013 574.48 586.853 578.453 590.64 578.12C609.36 576.267 628.093 574.64 646.8 572.76C649.467 572.693 652.12 570.76 652.387 568.013C653.133 564.693 649.893 561.613 646.68 561.827C643.12 561.893 639.6 562.467 636.08 562.8ZM729.507 562.773C725.333 565.173 726.347 572.36 731.36 572.96C750.68 574.56 770.053 576.107 789.4 577.627C793.373 578.04 796.92 573.027 794.627 569.56C793.12 566.733 789.613 566.6 786.84 566.32C769.853 565.28 752.933 563.613 735.973 562.32C733.827 562.333 731.48 561.72 729.507 562.773ZM586.72 606.68C584.027 608.333 583.307 612.2 585.133 614.76C592.707 625.347 605.493 632.427 618.68 631.8C628.96 631.56 638.96 626.973 645.92 619.427C648.373 616.747 651.707 613.587 650.373 609.56C648.36 605.667 642.32 605.773 640.16 609.467C634.173 617.08 624.44 622.067 614.627 620.76C606.573 620.293 599.68 615.267 594.613 609.307C592.813 606.947 589.64 604.973 586.72 606.68ZM732.187 606.96C729.08 608.547 728.613 613.093 730.88 615.6C737.96 625.12 749.333 631.773 761.36 631.813C772.16 632.133 782.88 627.48 790.32 619.693C792.453 617.373 794.827 614.96 795.6 611.813C796.2 606.707 788.467 604.04 785.773 608.413C780.2 615.48 771.92 620.853 762.68 620.88C754.013 621.347 745.92 616.64 740.427 610.213C738.44 608 735.347 604.987 732.187 606.96ZM682.307 622.387C680.08 627.587 679.093 633.227 677.427 638.64C675.64 645.32 672.987 651.787 671.947 658.653C671.04 663.76 675.293 668.187 680 669.32C686.707 671.16 693.547 672.48 700.28 674.267C703.587 674.947 708.027 676.267 710.4 672.973C712.173 671.12 711.307 668.4 711.28 666.147C710.88 665.973 710.067 665.64 709.667 665.467C709.827 663.653 711.053 661.453 709.267 660.08C704.627 655.373 698.907 651.773 694.933 646.4C692.973 644.293 691.693 641.227 688.867 640.16C687.52 644.693 685.693 649.067 684.08 653.507C686.893 644.16 690.12 634.907 692.2 625.373C693.107 620.08 684.453 617.507 682.307 622.387ZM590.987 644.427C584.053 645.747 575.387 647.693 572.387 654.933C570.093 660.213 574.96 665.147 579.453 667.147C590.267 671.947 602.933 672.053 614.147 668.573C618.68 667.04 623.667 664.64 625.507 659.893C627.133 655.2 623.88 650.36 619.747 648.307C610.973 643.747 600.627 643 590.987 644.427ZM771.2 644.773C765.733 645.973 759.72 647.493 756.04 652.053C753.453 655.013 753.307 659.827 755.867 662.867C758.587 666.307 762.88 667.92 766.947 669.16C776.6 671.68 786.96 671.533 796.52 668.707C800.533 667.347 804.787 665.387 807.053 661.613C809.187 657.093 807.067 651.36 802.707 649.053C793.32 643.547 781.72 642.707 771.2 644.773ZM743.173 679.36C730.8 695.773 711.293 706.64 690.707 707.853C685.36 707.893 683.333 716.053 687.627 718.933C690.653 721.707 695.067 720.52 698.693 719.973C719.36 716.027 739.36 705.187 751.827 687.96C756.147 682.827 748.053 675.267 743.173 679.36Z"></path>
<path fill="#022869" d="M350.92 469.307C352.707 467.88 355.107 468.653 357.16 468.84C368.667 470.867 380.173 473 391.693 475.053C394.133 475.707 397.413 475.947 398.533 478.627C400.48 482.067 397.44 486.987 393.44 486.547C381.787 485.293 370.373 482.347 358.773 480.68C355.493 480.04 351.667 479.88 349.267 477.253C347.36 474.747 348.427 470.987 350.92 469.307Z"></path>
<path fill="#002467" d="M977.107 475.027C989.72 473.093 1002.21 470.467 1014.83 468.547C1018.08 468.013 1021.41 471.24 1020.84 474.533C1020.67 477.133 1018.52 479.453 1015.92 479.747C1003.53 481.92 991.187 484.32 978.8 486.467C976.227 487.12 973.267 486.573 971.6 484.373C970.12 482.107 971.013 479.347 971.56 476.947C973.347 476.173 975.133 475.293 977.107 475.027Z"></path>
<path fill="#032767" d="M242.28 581.267C239.293 558.333 253.107 534.013 274.827 525.68C278.427 523.733 283.813 526.027 283.653 530.453C283.52 535.893 275.667 535.56 275.293 540.853L275.16 540.653C274.627 539.733 274.067 538.84 273.467 537.973C270.093 541.573 265.747 544.12 262.653 547.987C253.653 558.2 250.187 573.107 254.027 586.187C257.24 595.253 264.04 603.2 272.827 607.267C285.347 612.907 300.667 612.093 312.173 604.4C314.827 602.827 318.453 602.12 321.107 604.067C323.88 606.053 323.68 610.84 320.787 612.64C304.853 622.693 283.533 625.013 266.56 616.16C253.787 609.027 244.16 595.893 242.28 581.267Z"></path>
<path fill="#042868" d="M1079.01 529.52C1079.24 525.933 1083.39 523.627 1086.64 525.027C1108.13 532.267 1121.95 555.133 1121.2 577.373C1120.51 593.827 1110.72 609.893 1095.8 617.173C1079.03 624.933 1058.57 622.733 1043.15 612.88C1040.04 611.067 1039.4 605.933 1042.75 604.027C1045.04 602.08 1048.15 603.547 1050.56 604.453C1059.89 609.6 1070.76 612.747 1081.43 610.413C1095.27 608.053 1106.91 596.84 1109.96 583.16C1111.53 577.627 1111.05 571.813 1109.73 566.293C1106.84 553.307 1097.76 541.04 1084.99 536.453C1082.17 535.227 1078.64 533.067 1079.01 529.52Z"></path>
<path fill="#002466" d="M456.2 528.347C459.227 527.347 463.72 527.32 464.987 530.92C466.533 534.067 464.467 537.907 461.04 538.467C435.44 545.733 409.813 552.987 384.053 559.653C379.96 561.213 375.293 556.653 376.587 552.52C377.187 550.253 379.693 549.32 381.707 548.653C406.547 541.96 431.427 535.333 456.2 528.347Z"></path>
<path fill="#002662" d="M917.64 528.2C920.027 526.8 922.96 527.853 925.493 528.333C950.627 535.04 975.787 541.667 1000.88 548.547C1004.97 549.387 1006.24 555.08 1003.15 557.76C1001.39 559.933 998.373 559.333 996.067 558.667C975.213 552.693 954.08 547.813 933.213 541.933C928 540.32 922.427 539.707 917.547 537.213C914.04 535.547 914.427 529.96 917.64 528.2Z"></path>
<path fill="#022B6C" d="M225.76 534.92C229.547 531.267 236.853 536.293 234.173 541.027C229.267 549.787 225.187 559.293 224.973 569.507C225.293 573.4 221.173 576.84 217.467 575.04C213.56 573.6 213.573 568.907 214.133 565.493C215.627 554.68 218.587 543.413 225.76 534.92Z"></path>
<path fill="#002C6B" d="M1131.08 534.747C1134.64 532.213 1138.69 535.227 1140.24 538.573C1145.63 548.293 1149.48 559.4 1148.97 570.613C1148.68 575.373 1141.52 577.053 1139.21 572.853C1137.67 567.747 1138.15 562.213 1136.39 557.133C1134.93 551.413 1131.85 546.373 1129.21 541.173C1127.91 538.933 1128.8 535.947 1131.08 534.747Z"></path>
<path fill="#F4804D" d="M1084.99 536.453C1097.76 541.04 1106.84 553.307 1109.73 566.293C1109.65 571.92 1109.72 577.533 1109.96 583.16C1106.91 596.84 1095.27 608.053 1081.43 610.413C1070.76 612.747 1059.89 609.6 1050.56 604.453C1059.44 604.2 1068.6 602.48 1075.92 597.133C1089.99 587.48 1096.75 568.507 1092.05 552.133C1090.73 546.48 1087.68 541.52 1084.99 536.453Z"></path>
<path fill="#F48150" d="M273.467 537.973C274.067 538.84 274.627 539.733 275.16 540.653L274.973 541.907C269.973 550 268.333 559.907 269.133 569.293C271.04 582.76 279.707 595.6 292.467 600.907C298.6 603.893 305.56 603.627 312.173 604.4C300.667 612.093 285.347 612.907 272.827 607.267C264.04 603.2 257.24 595.253 254.027 586.187C250.187 573.107 253.653 558.2 262.653 547.987C265.747 544.12 270.093 541.573 273.467 537.973Z"></path>
<path fill="#002368" d="M457.853 560.72C461.293 559.24 466.187 561.053 466.107 565.293C466.827 569.667 462.133 571.4 458.707 572.08C448.333 574.387 438.32 578.08 427.947 580.32C423.2 581.533 419.867 575.52 422.373 571.733C424.32 569.96 426.933 569.28 429.387 568.56C438.893 566.027 448.32 563.173 457.853 560.72Z"></path>
<path fill="#012868" d="M914.067 565.44C915.053 563.133 915.72 560.16 918.533 559.427C921.387 559.267 924.147 560.133 926.88 560.88C935.867 563.56 945.027 565.68 954 568.44C956.307 569.28 959.693 570.32 959.64 573.36C960.173 576.827 956.907 580.573 953.32 579.627C944.253 577.547 935.453 574.44 926.387 572.373C921.893 571.067 915.76 570.693 914.067 565.44Z"></path>
<path fill="#02236A" d="M636.08 562.8C639.6 562.467 643.12 561.893 646.68 561.827C649.893 561.613 653.133 564.693 652.387 568.013C652.12 570.76 649.467 572.693 646.8 572.76C628.093 574.64 609.36 576.267 590.64 578.12C586.853 578.453 583.013 574.48 584.667 570.707C585.293 568.067 587.973 566.72 590.507 566.787C605.72 565.773 620.88 564.067 636.08 562.8Z"></path>
<path fill="#022565" d="M729.507 562.773C731.48 561.72 733.827 562.333 735.973 562.32C752.933 563.613 769.853 565.28 786.84 566.32C789.613 566.6 793.12 566.733 794.627 569.56C796.92 573.027 793.373 578.04 789.4 577.627C770.053 576.107 750.68 574.56 731.36 572.96C726.347 572.36 725.333 565.173 729.507 562.773Z"></path>
<path fill="#B47964" d="M1109.73 566.293C1111.05 571.813 1111.53 577.627 1109.96 583.16C1109.72 577.533 1109.65 571.92 1109.73 566.293Z"></path>
<path fill="#FEEBD1" d="M522.44 582.64C528.8 579.493 536.053 579.693 542.96 579.613C542.973 587.613 542.893 595.613 543.173 603.627C538.92 601.44 534.027 599.707 529.24 601.08C521.053 603.107 517.413 614.68 522.88 621.04C527.68 627.107 535.44 629.72 542.987 629.613C542.933 635.88 543.347 642.133 543.427 648.4C534.573 648.613 525.333 647.267 517.867 642.2C507.44 635.533 500.453 623.12 501.693 610.613C502.693 598.347 511.533 587.76 522.44 582.64Z"></path>
<path fill="#FEEBD1" d="M962.187 956.933C974.707 948.813 987.48 940.733 998.48 930.573C1010.13 949.96 1020.25 970.24 1029.65 990.787L1030.37 992.453C991.333 992.16 952.293 992.28 913.253 992.213C907.213 992.12 901.133 992.707 895.147 991.733C899.813 988.24 905.733 987.147 910.707 984.16C928.32 975.987 945.693 967.213 962.187 956.933Z"></path>
<path fill="#FDEAD2" d="M839.613 581.733C847.92 581.493 856.64 582.173 863.733 586.96C873.16 592.787 880.267 603.373 879.933 614.72C880.2 628.093 871.573 640.587 859.88 646.6C853.52 650.173 845.973 650.147 838.907 650.147C838.96 644.227 839.067 638.28 839.747 632.4C847.627 631.76 855.573 627.64 859.467 620.56C863.173 613.693 859.667 603.747 851.973 601.533C847.813 600.16 843.48 601.28 839.64 603.013C839.56 595.92 839.44 588.827 839.613 581.733Z"></path>
<path fill="#05296A" d="M586.72 606.68C589.64 604.973 592.813 606.947 594.613 609.307C599.68 615.267 606.573 620.293 614.627 620.76C624.44 622.067 634.173 617.08 640.16 609.467C642.32 605.773 648.36 605.667 650.373 609.56C651.707 613.587 648.373 616.747 645.92 619.427C638.96 626.973 628.96 631.56 618.68 631.8C605.493 632.427 592.707 625.347 585.133 614.76C583.307 612.2 584.027 608.333 586.72 606.68Z"></path>
<path fill="#052A68" d="M732.187 606.96C735.347 604.987 738.44 608 740.427 610.213C745.92 616.64 754.013 621.347 762.68 620.88C771.92 620.853 780.2 615.48 785.773 608.413C788.467 604.04 796.2 606.707 795.6 611.813C794.827 614.96 792.453 617.373 790.32 619.693C782.88 627.48 772.16 632.133 761.36 631.813C749.333 631.773 737.96 625.12 730.88 615.6C728.613 613.093 729.08 608.547 732.187 606.96Z"></path>
<path fill="#022B6E" d="M223.107 608.453C226.067 606.493 230.267 607.667 231.733 610.907C236.853 619.653 243.427 628.107 252.76 632.613C255.653 634.187 259.08 635.107 261.36 637.627C263.28 641.747 258.88 646.52 254.587 645.067C240.107 641.16 229.667 628.96 222.227 616.56C220.507 614.04 220.573 610.4 223.107 608.453Z"></path>
<path fill="#002B6B" d="M1133.79 608.333C1137.77 604.747 1144.6 609.72 1142.17 614.6C1135.55 628.267 1124.08 640.413 1109.35 645.187C1105.45 646.867 1100.63 642.667 1101.92 638.573C1102.97 635.893 1106 634.987 1108.36 633.773C1116.95 630.107 1123.85 623.253 1128.83 615.453C1130.43 613.053 1131.76 610.427 1133.79 608.333Z"></path>
<path fill="#002C70" d="M389.587 610.973C393.84 609.2 397.28 613.333 400.413 615.547C428.093 637.32 455.933 658.907 483.373 680.987C486.8 683.627 484.853 689.267 480.933 690.253C478.2 691.2 475.787 689.16 473.733 687.653C447.013 666.4 420.187 645.267 393.293 624.227C390.8 622.173 387.667 620.493 386.307 617.413C385.56 614.747 387.173 612.053 389.587 610.973Z"></path>
<path fill="#F2EBE9" d="M531.413 615.493C529.307 613.013 533.693 609.84 535.84 612.027C538.76 613.76 544 614.413 543.347 618.893C539.307 618.52 534.44 618.6 531.413 615.493Z"></path>
<path fill="#FBF7EE" d="M839.12 621.053C838.52 615.747 843.227 612.387 847.933 611.56C850.027 611.36 851 612.373 850.867 614.613C848.667 618.907 843.773 621.08 839.12 621.053Z"></path>
<path fill="#062965" d="M682.307 622.387C684.453 617.507 693.107 620.08 692.2 625.373C690.12 634.907 686.893 644.16 684.08 653.507C683.68 655.24 683.36 657.013 683.16 658.8C691.84 661.64 701.173 662.013 709.667 665.467C710.067 665.64 710.88 665.973 711.28 666.147C711.307 668.4 712.173 671.12 710.4 672.973C708.027 676.267 703.587 674.947 700.28 674.267C693.547 672.48 686.707 671.16 680 669.32C675.293 668.187 671.04 663.76 671.947 658.653C672.987 651.787 675.64 645.32 677.427 638.64C679.093 633.227 680.08 627.587 682.307 622.387Z"></path>
<path fill="#002969" d="M984.253 625.667C988.24 623.267 993.613 627.52 992.6 631.947C991.493 634.48 988.907 635.813 986.88 637.52C959.467 658.067 932.173 678.773 904.773 699.347C901.627 702.4 895.587 700.133 895.147 695.84C894.867 693.507 896.387 691.52 898.173 690.24C923.053 671.52 947.773 652.6 972.68 633.92C976.627 631.293 980.067 627.92 984.253 625.667Z"></path>
<path fill="#F88556" d="M688.867 640.16C691.693 641.227 692.973 644.293 694.933 646.4C698.907 651.773 704.627 655.373 709.267 660.08C711.053 661.453 709.827 663.653 709.667 665.467C701.173 662.013 691.84 661.64 683.16 658.8C683.36 657.013 683.68 655.24 684.08 653.507C685.693 649.067 687.52 644.693 688.867 640.16Z"></path>
<path fill="#F28156" d="M590.987 644.427C600.627 643 610.973 643.747 619.747 648.307C623.88 650.36 627.133 655.2 625.507 659.893C623.667 664.64 618.68 667.04 614.147 668.573C602.933 672.053 590.267 671.947 579.453 667.147C574.96 665.147 570.093 660.213 572.387 654.933C575.387 647.693 584.053 645.747 590.987 644.427Z"></path>
<path fill="#F28255" d="M771.2 644.773C781.72 642.707 793.32 643.547 802.707 649.053C807.067 651.36 809.187 657.093 807.053 661.613C804.787 665.387 800.533 667.347 796.52 668.707C786.96 671.533 776.6 671.68 766.947 669.16C762.88 667.92 758.587 666.307 755.867 662.867C753.307 659.827 753.453 655.013 756.04 652.053C759.72 647.493 765.733 645.973 771.2 644.773Z"></path>
<path fill="#022D6B" d="M422.04 678.653C423.573 676.093 425.733 672.333 429.32 673.333C433.333 674.747 436.453 677.84 439.867 680.28C454.6 691.267 469.467 702.08 484.16 713.12C487.44 715.64 491.227 717.693 493.84 720.987C496.373 725.773 489.76 731.547 485.44 727.88C465.453 713.253 445.6 698.373 425.6 683.733C423.8 682.52 422.973 680.493 422.04 678.653Z"></path>
<path fill="#002669" d="M743.173 679.36C748.053 675.267 756.147 682.827 751.827 687.96C739.36 705.187 719.36 716.027 698.693 719.973C695.067 720.52 690.653 721.707 687.627 718.933C683.333 716.053 685.36 707.893 690.707 707.853C711.293 706.64 730.8 695.773 743.173 679.36Z"></path>
<path fill="#00286A" d="M952.213 684.213C955.32 682.36 959.453 684.533 960.12 687.987C961.147 691.453 957.707 693.6 955.44 695.453C935.92 710.187 916.04 724.453 896.573 739.253C891.96 742.933 884.76 735.853 888.72 731.347C892.667 727.213 897.813 724.48 902.253 720.92C918.92 708.707 935.253 695.987 952.213 684.213Z"></path>
<path fill="#FCD15D" d="M595.173 747.16C598.653 745.813 601.48 748.747 604.253 750.347C612.267 755.84 621.387 759.333 630.4 762.773C631.8 766.04 631.56 769.787 632.573 773.213C636.933 790.16 650.413 803.707 666.453 810.16C670.467 813.787 676.067 814.16 681.187 814.733C689.387 815.293 697.72 815.76 705.827 814.12C696.253 812.227 686.387 814.693 676.88 812.4C686.333 813.173 695.907 813.627 705.333 812.267C728.787 808.88 748.213 787.987 749.84 764.307C750.107 764.16 750.627 763.853 750.88 763.693C754.16 762.787 757.413 761.747 760.507 760.307C766.76 757.467 773.027 754.52 778.773 750.733C781.213 749.493 783.507 746.867 786.44 747.293C830.267 760.653 870.72 784.013 905.16 814.133C905.293 815.96 905.453 817.8 905.613 819.64C904.04 820.107 902.48 820.573 900.92 821.013C871.293 821.347 841.667 820.813 812.053 821.013C776.453 821.107 740.84 821.2 705.24 820.853C627.467 821.28 549.693 820.92 471.933 821.013C479.147 813.16 486.84 805.573 496.013 800.013C507.613 791.72 519.293 783.333 532.187 777.187C533.653 776.08 533.747 773.88 534.627 772.373C553.907 762 574.147 753.28 595.173 747.16Z"></path>
<path fill="#00266C" d="M177.213 759.947C177.013 756.08 179.253 752.333 182.92 750.987C185.507 752.387 188.333 753.187 191.213 753.72C189.413 755.84 187.92 758.28 187.8 761.147C187.76 837.947 187.947 914.747 187.733 991.56C187.147 990.693 186.573 989.84 185.987 989C183.933 989.467 181.88 989.96 179.84 990.467C179.173 991.747 178.507 993.04 177.84 994.347C177.76 993.907 177.613 993 177.547 992.56C176.76 976.867 177.4 961.093 177.16 945.387C177.053 883.573 177.173 821.76 177.213 759.947Z"></path>
<path fill="#233348" d="M750.88 763.693C752.293 759.627 757.213 760.88 760.507 760.307C757.413 761.747 754.16 762.787 750.88 763.693Z"></path>
<path fill="#FEFFFF" d="M187.8 761.147C235.32 761.133 282.84 760.987 330.347 761.173C330.64 837.96 330.547 914.747 330.373 991.52C282.827 991.227 235.28 991.427 187.733 991.56C187.947 914.747 187.76 837.947 187.8 761.147ZM243.973 825.533C263.587 825.427 283.213 825.493 302.813 825.507C307.16 824.453 307.627 819.093 305.68 815.76C300.973 813.6 295.72 814.547 290.733 814.413C274.28 814.64 257.787 814.027 241.36 814.667C235.213 816.507 237.8 826.32 243.973 825.533ZM215.2 839.493C211.453 840.187 210.32 845.92 212.987 848.387C214.693 850.387 217.573 850.28 219.96 850.36C237.773 850.187 255.587 850.307 273.4 850.333C275.373 850.187 277.813 850.493 279.213 848.76C282.4 845.6 280.24 839.12 275.48 839.373C255.4 839.147 235.267 839.067 215.2 839.493ZM238.92 867.04C235.933 870.653 239.813 875.893 244.013 875.653C263.16 875.52 282.32 875.587 301.467 875.613C305.08 876.04 306.56 872.32 307.133 869.44C306.013 867.12 304.213 864.56 301.28 864.813C284.413 864.587 267.533 864.92 250.653 864.653C246.76 864.947 241.64 863.36 238.92 867.04ZM215.12 890.027C211.44 890.853 210.147 896.547 212.933 899.04C215.08 901.307 218.493 900.88 221.32 900.907C239.547 900.293 257.8 900.8 276.013 900.413C280.813 900.6 282.547 892.987 278.573 890.68C275.32 889.053 271.52 889.76 268.027 889.64C250.4 890.027 232.72 889.307 215.12 890.027ZM238.773 923.8C240.613 926.24 243.893 925.96 246.613 926C265.293 925.827 284 926.093 302.667 925.867C305.8 925.68 306.387 922.173 307.227 919.867C306.04 916.96 303.387 914.48 300.053 914.88C280.907 914.987 261.773 914.907 242.64 914.933C238.453 915.053 236.147 920.64 238.773 923.8ZM213.72 941.987C209.533 945.16 211.813 952.347 217.2 952.253C236.373 952.267 255.56 952.227 274.733 952.28C279.187 952.72 282.48 946.48 279.227 943.267C277.427 941.16 274.507 941.267 271.987 941.24C254.68 941.267 237.36 941.213 220.053 941.12C217.933 941.187 215.64 940.88 213.72 941.987Z"></path>
<path fill="#FEFFFF" d="M1046.65 890.493C1071.47 890.587 1096.31 890.013 1121.11 890.84C1120.55 892.587 1121.87 896.48 1118.84 896.147C1109 896.493 1099.16 896.04 1089.32 896.24C1086.97 896.213 1084.28 896.88 1083.17 899.187C1080.99 902.453 1084.16 907.053 1087.93 906.84C1098.85 907.04 1109.77 906.693 1120.69 906.867C1120.36 933.88 1120.59 960.893 1120.48 987.893C1096.04 987.48 1071.6 987.88 1047.17 987.773C1047.05 984.547 1046.97 981.32 1046.97 978.107C1046.99 954.333 1046.75 930.56 1046.95 906.787C1052.69 906.733 1058.47 907.213 1064.23 906.76C1066.88 906.453 1069.25 903.987 1069.24 901.267C1068.89 898.707 1066.67 896.613 1064.12 896.427C1058.24 895.88 1052.33 896.32 1046.45 896.227C1046.47 894.293 1046.52 892.387 1046.65 890.493Z"></path>
<path fill="#FEFFFF" d="M682.973 904.32C696.573 900.147 712.133 912.56 710.04 926.853C708.987 939.867 694.293 949.213 682.04 944.76C673.053 941.64 666.613 932.333 667.627 922.733C668.08 914.16 674.96 906.76 682.973 904.32Z"></path>
<path fill="#FDFFFF" d="M341.24 761.173C344.547 761.147 347.867 761.147 351.173 761.187C351.413 769.667 351.44 778.16 351.467 786.653C351.347 855.267 351.373 923.893 351.507 992.52C348.04 992.36 344.56 992.373 341.093 992.32C341.24 915.267 340.867 838.213 341.24 761.173Z"></path>
<path fill="#FEEBD0" d="M642.227 766.64C648.547 768.693 655.2 769.373 661.653 770.853C665.173 779.493 673.48 785.347 682.64 786.547C693 788 705.307 787.693 713.173 779.76C714.6 778.413 716 777.04 717.453 775.733L717.107 774.8C716.933 774.147 716.613 772.827 716.44 772.173C723.747 770.213 731.32 769.48 738.733 768.04C736.267 778.253 730.68 787.96 721.827 793.893C713.733 800.04 703.36 802.173 693.387 802.2C682.56 802.48 671.16 801.4 661.747 795.587C651.653 789.173 643.96 778.613 642.227 766.64Z"></path>
<path fill="#F68355" d="M661.653 770.853C679.52 773.213 697.573 773.52 715.533 772.227C715.92 772.867 716.707 774.16 717.107 774.8L717.453 775.733C716 777.04 714.6 778.413 713.173 779.76C705.307 787.693 693 788 682.64 786.547C673.48 785.347 665.173 779.493 661.653 770.853Z"></path>
<path fill="#FAD866" d="M458.467 828.2C481.32 806.44 506.813 787.347 534.627 772.373C533.747 773.88 533.653 776.08 532.187 777.187C519.293 783.333 507.613 791.72 496.013 800.013C486.84 805.573 479.147 813.16 471.933 821.013C549.693 820.92 627.467 821.28 705.24 820.853C740.84 821.2 776.453 821.107 812.053 821.013C841.667 820.813 871.293 821.347 900.92 821.013C906.04 823.053 912.733 824.92 913.733 831.293C910.4 827.653 906.387 824.133 901.307 823.507C894.267 822.533 887.12 823.067 880.04 822.907C748.934 823.133 617.827 822.987 486.72 822.96C482.573 823 478.387 822.933 474.307 823.747C469.16 824.773 464.973 828.467 462.227 832.8C461.8 833.467 460.96 834.827 460.533 835.493C460.92 832.813 461.48 829.6 458.467 828.2Z"></path>
<path fill="#E6D583" d="M666.453 810.16C669.907 810.96 673.387 811.707 676.88 812.4C686.387 814.693 696.253 812.227 705.827 814.12C697.72 815.76 689.387 815.293 681.187 814.733C676.067 814.16 670.467 813.787 666.453 810.16Z"></path>
<path fill="#002367" d="M243.973 825.533C237.8 826.32 235.213 816.507 241.36 814.667C257.787 814.027 274.28 814.64 290.733 814.413C295.72 814.547 300.973 813.6 305.68 815.76C307.627 819.093 307.16 824.453 302.813 825.507C283.213 825.493 263.587 825.427 243.973 825.533Z"></path>
<path fill="#FCCF5A" d="M905.16 814.133C942.72 847.16 972.867 887.827 998.48 930.573C987.48 940.733 974.707 948.813 962.187 956.933C945.693 967.213 928.32 975.987 910.707 984.16C905.733 987.147 899.813 988.24 895.147 991.733C898.88 971.827 901.707 951.733 904.747 931.707C907.827 930.88 907.333 927.24 905.88 925.213C906.907 916.427 908.6 907.747 909.76 898.987C911.413 890.24 912.853 881.427 913.867 872.573C915.16 858.947 921.373 844.133 913.733 831.293C912.733 824.92 906.04 823.053 900.92 821.013C902.48 820.573 904.04 820.107 905.613 819.64C905.453 817.8 905.293 815.96 905.16 814.133Z"></path>
<path fill="#002264" d="M1098.03 828.04C1099.56 821.453 1107.76 820.253 1113.39 821.52C1119.16 822.253 1125.77 826.653 1124.25 833.333C1122.32 848.96 1120.35 864.6 1118.05 880.187C1121.64 880.28 1125.79 879.413 1128.85 881.84C1130.75 883.24 1131.28 885.773 1131.31 888.027C1131.4 920.48 1131.24 952.933 1131.35 985.387C1131.39 987.84 1131 990.28 1130.37 992.667C1163.36 992.373 1196.36 992.693 1229.35 992.52C1239.19 992.467 1248.29 1000.69 1248.53 1010.69C1249.16 1020.56 1240.77 1030.13 1230.76 1030.27C1156.07 1030.28 1081.37 1030.32 1006.68 1030.27C955.387 1030.05 904.093 1030.55 852.8 1030.13C856.213 1029.69 859.573 1029 862.933 1028.25C854.307 1024.57 844.173 1028.61 835.72 1024.16C833.8 1022.99 831.56 1022.55 829.347 1022.68C762.693 1022.77 696.027 1022.75 629.36 1022.8C621.627 1023.57 613.573 1021.91 606.107 1024.59C599.347 1026.47 592.24 1024.93 585.333 1025.32C571.92 1025.79 558.453 1024.57 545.08 1026.17C531.333 1027.6 517.467 1025.67 503.707 1027.17C510.093 1030.48 517.6 1028.6 524.44 1030.11C394.04 1030.57 263.64 1030.04 133.24 1030.39C119.493 1030.83 109.413 1013.87 116.827 1002.11C120.307 995.867 127.56 992.16 134.627 992.373C148.933 992.373 163.24 992.453 177.547 992.56C177.613 993 177.76 993.907 177.84 994.347C178.507 993.04 179.173 991.747 179.84 990.467C181.88 989.96 183.933 989.467 185.987 989C186.573 989.84 187.147 990.693 187.733 991.56C235.28 991.427 282.827 991.227 330.373 991.52C329.093 993.48 327.693 995.373 326.32 997.28C328.28 997.6 330.227 997.96 332.187 998.267C336.373 999.28 340.133 996.667 343.84 995.16C342.24 994.84 340.653 994.547 339.053 994.253C339.733 993.6 340.413 992.96 341.093 992.32C344.56 992.373 348.04 992.36 351.507 992.52C351.88 992.8 352.653 993.347 353.027 993.627C352.48 994.667 351.933 995.733 351.387 996.813C351.893 997.413 352.4 998.027 352.907 998.667C355.6 996.307 359.627 994.24 359.653 990.16C360.32 981.28 359.693 972.36 360.013 963.467C360.613 963.52 361.8 963.627 362.387 963.68C361.427 973.16 362.093 982.733 361.693 992.253C401.12 992.413 440.547 992.08 479.973 992.333C479.48 989.987 478.973 987.667 478.573 985.32C477.973 980.16 477.413 975.013 476.773 969.867C477.227 961.093 475.107 952.533 474.133 943.88C470.147 918.2 466.587 892.453 462.907 866.733C461.4 855.547 457.493 843.72 462.227 832.8C464.973 828.467 469.16 824.773 474.307 823.747C478.387 822.933 482.573 823 486.72 822.96C617.827 822.987 748.933 823.133 880.04 822.907C887.12 823.067 894.267 822.533 901.307 823.507C906.387 824.133 910.4 827.653 913.733 831.293C921.373 844.133 915.16 858.947 913.867 872.573C913.653 872.16 913.227 871.32 913.013 870.893C912.04 880.28 909.627 889.507 909.76 898.987C908.6 907.747 906.907 916.427 905.88 925.213C905.2 927.307 904.8 929.48 904.747 931.707C901.707 951.733 898.88 971.827 895.147 991.733C901.133 992.707 907.213 992.12 913.253 992.213C952.293 992.28 991.333 992.16 1030.37 992.453L1029.65 990.787C1034.75 989.973 1040.72 990.48 1044.41 986.133C1045.6 983.573 1046.29 980.827 1046.97 978.107C1046.97 981.32 1047.05 984.547 1047.17 987.773C1071.6 987.88 1096.04 987.48 1120.48 987.893C1120.59 960.893 1120.36 933.88 1120.69 906.867C1109.77 906.693 1098.85 907.04 1087.93 906.84C1084.16 907.053 1080.99 902.453 1083.17 899.187C1084.28 896.88 1086.97 896.213 1089.32 896.24C1099.16 896.04 1109 896.493 1118.84 896.147C1121.87 896.48 1120.55 892.587 1121.11 890.84C1096.31 890.013 1071.47 890.587 1046.65 890.493C1047.31 886.8 1047.73 882.973 1045.71 879.587C1046.57 879.627 1048.31 879.707 1049.19 879.733C1045.48 870.187 1042.15 860.427 1039.57 850.507C1037.56 843.76 1040.89 835.427 1048 833.493C1055.49 830.84 1063.96 835.627 1066.31 843.053C1070.92 855.147 1075.49 867.293 1079.31 879.667C1083.17 879.88 1087.05 879.893 1090.93 879.92C1093.19 862.613 1095.67 845.333 1098.03 828.04ZM471.933 837.333C468.133 841.36 469.533 847.24 470.093 852.16C475.32 884.307 479.2 916.653 484.493 948.787C486.52 967.307 489.547 985.707 491.693 1004.21C492.133 1010.23 495.893 1015.96 501.493 1018.35C505.76 1019.47 510.253 1019.09 514.64 1019.24C632.84 1019.39 751.053 1019.35 869.24 1019.25C875.733 1018.61 881.787 1013.47 882.493 1006.8C884.867 992.4 887.133 978 889.333 963.587C894.853 928.613 900.04 893.587 905.4 858.6C906.147 853.747 907.387 848.933 907.32 844C907.293 838.733 902.627 833.72 897.213 834.053C760.373 834.107 623.52 834.04 486.68 834.107C481.72 834.4 475.667 833.2 471.933 837.333ZM1052.37 857.16C1054.93 864.64 1057.17 872.253 1060.17 879.587C1062.79 879.693 1065.43 879.787 1068.07 879.853C1065.77 870.787 1062.09 862.147 1059.28 853.24C1058.27 849.827 1056.77 846.587 1054.88 843.587C1053.71 843.6 1051.35 843.64 1050.17 843.653C1048.77 848.293 1051.08 852.787 1052.37 857.16ZM125.933 1007.36C122.933 1012.55 127.267 1019.97 133.32 1019.68C216.44 1019.55 299.56 1019.64 382.68 1019.67C416.373 1019.89 450.067 1019.24 483.747 1019.95C481.493 1014.63 481.173 1008.83 480.627 1003.16C365.267 1003.23 249.907 1003.25 134.533 1003.23C131.213 1003.07 127.467 1004.11 125.933 1007.36ZM893.693 1003.17C893.04 1008.77 893.027 1014.65 890.213 1019.72C1003.28 1019.6 1116.36 1019.6 1229.44 1019.72C1233.64 1019.79 1237.8 1016.27 1237.91 1011.97C1238.15 1007.39 1234.11 1002.81 1229.35 1003.36C1117.45 1003.33 1005.57 1003.11 893.693 1003.17Z"></path>
<path fill="#FBCF5B" d="M380.853 929.627C402.44 892.84 427.96 858.107 458.467 828.2C461.48 829.6 460.92 832.813 460.533 835.493C460.093 836.373 459.68 837.253 459.307 838.173C456.173 845.427 457.973 853.6 459.12 861.107C460.507 867.147 459.533 873.907 463.4 879.16L463.453 879.507C461.867 889.093 464.933 898.493 465.813 907.987C467.293 915.707 467.627 923.813 470.987 931.053C471.04 931.427 471.147 932.173 471.2 932.547C470.44 939.293 470.093 946.707 474.107 952.6C475.013 958.347 475.773 964.12 476.773 969.867C477.413 975.013 477.973 980.16 478.573 985.32C471.28 984.76 465.04 980.667 458.48 977.88C436.853 967.187 415.88 955.12 396.373 940.893C390.907 937.52 386.493 932.72 380.853 929.627Z"></path>
<path fill="#3B4748" d="M460.533 835.493C460.96 834.827 461.8 833.467 462.227 832.8C457.493 843.72 461.4 855.547 462.907 866.733C466.587 892.453 470.147 918.2 474.133 943.88C475.107 952.533 477.227 961.093 476.773 969.867C475.773 964.12 475.013 958.347 474.107 952.6C473.36 945.88 472.413 939.187 471.2 932.547C471.147 932.173 471.04 931.427 470.987 931.053C468.827 913.827 466.093 896.667 463.453 879.507L463.4 879.16C462.627 872.32 461.467 865.533 460.507 858.72C459.573 851.933 457.693 845.013 459.307 838.173C459.68 837.253 460.093 836.373 460.533 835.493Z"></path>
<path fill="#FEFEFF" d="M471.933 837.333C475.667 833.2 481.72 834.4 486.68 834.107C623.52 834.04 760.373 834.107 897.213 834.053C902.627 833.72 907.293 838.733 907.32 844C907.387 848.933 906.147 853.747 905.4 858.6C900.04 893.587 894.853 928.613 889.333 963.587C869.053 972.347 848.507 980.813 826.893 985.773C798.427 992.92 769.267 997.227 739.96 998.853C681.107 1002.76 621.493 997.547 564.547 981.96C544.693 976.213 525.107 969.387 506.613 960.107C499.027 956.72 492.16 951.96 484.493 948.787C479.2 916.653 475.32 884.307 470.093 852.16C469.533 847.24 468.133 841.36 471.933 837.333ZM679.173 893.973C665.387 898.027 655.613 912.32 656.84 926.653C657.56 943.08 672.68 957.48 689.28 956.6C707.12 957.107 722.44 940.16 720.933 922.547C720.013 902.68 698.12 887.413 679.173 893.973Z"></path>
<path fill="#002068" d="M215.2 839.493C235.267 839.067 255.4 839.147 275.48 839.373C280.24 839.12 282.4 845.6 279.213 848.76C277.813 850.493 275.373 850.187 273.4 850.333C255.587 850.307 237.773 850.187 219.96 850.36C217.573 850.28 214.693 850.387 212.987 848.387C210.32 845.92 211.453 840.187 215.2 839.493Z"></path>
<path fill="#DCC46F" d="M459.12 861.107C457.973 853.6 456.173 845.427 459.307 838.173C457.693 845.013 459.573 851.933 460.507 858.72C461.467 865.533 462.627 872.32 463.4 879.16C459.533 873.907 460.507 867.147 459.12 861.107Z"></path>
<path fill="#F47D43" d="M1052.37 857.16C1051.08 852.787 1048.77 848.293 1050.17 843.653C1051.35 843.64 1053.71 843.6 1054.88 843.587C1056.77 846.587 1058.27 849.827 1059.28 853.24C1062.09 862.147 1065.77 870.787 1068.07 879.853C1065.43 879.787 1062.79 879.693 1060.17 879.587C1057.17 872.253 1054.93 864.64 1052.37 857.16Z"></path>
<path fill="#002065" d="M238.92 867.04C241.64 863.36 246.76 864.947 250.653 864.653C267.533 864.92 284.413 864.587 301.28 864.813C304.213 864.56 306.013 867.12 307.133 869.44C306.56 872.32 305.08 876.04 301.467 875.613C282.32 875.587 263.16 875.52 244.013 875.653C239.813 875.893 235.933 870.653 238.92 867.04Z"></path>
<path fill="#3B434A" d="M913.013 870.893C913.227 871.32 913.653 872.16 913.867 872.573C912.853 881.427 911.413 890.24 909.76 898.987C909.627 889.507 912.04 880.28 913.013 870.893Z"></path>
<path fill="#DCC371" d="M463.453 879.507C466.093 896.667 468.827 913.827 470.987 931.053C467.627 923.813 467.293 915.707 465.813 907.987C464.933 898.493 461.867 889.093 463.453 879.507Z"></path>
<path fill="#002267" d="M215.12 890.027C232.72 889.307 250.4 890.027 268.027 889.64C271.52 889.76 275.32 889.053 278.573 890.68C282.547 892.987 280.813 900.6 276.013 900.413C257.8 900.8 239.547 900.293 221.32 900.907C218.493 900.88 215.08 901.307 212.933 899.04C210.147 896.547 211.44 890.853 215.12 890.027Z"></path>
<path fill="#022967" d="M679.173 893.973C698.12 887.413 720.013 902.68 720.933 922.547C722.44 940.16 707.12 957.107 689.28 956.6C672.68 957.48 657.56 943.08 656.84 926.653C655.613 912.32 665.387 898.027 679.173 893.973ZM682.973 904.32C674.96 906.76 668.08 914.16 667.627 922.733C666.613 932.333 673.053 941.64 682.04 944.76C694.293 949.213 708.987 939.867 710.04 926.853C712.133 912.56 696.573 900.147 682.973 904.32Z"></path>
<path fill="#00236A" d="M238.773 923.8C236.147 920.64 238.453 915.053 242.64 914.933C261.773 914.907 280.907 914.987 300.053 914.88C303.387 914.48 306.04 916.96 307.227 919.867C306.387 922.173 305.8 925.68 302.667 925.867C284 926.093 265.293 925.827 246.613 926C243.893 925.96 240.613 926.24 238.773 923.8Z"></path>
<path fill="#DACB7F" d="M904.747 931.707C904.8 929.48 905.2 927.307 905.88 925.213C907.333 927.24 907.827 930.88 904.747 931.707Z"></path>
<path fill="#FFEBD1" d="M380.853 929.627C386.493 932.72 390.907 937.52 396.373 940.893C415.88 955.12 436.853 967.187 458.48 977.88C465.04 980.667 471.28 984.76 478.573 985.32C478.973 987.667 479.48 989.987 479.973 992.333C440.547 992.08 401.12 992.413 361.693 992.253C362.093 982.733 361.427 973.16 362.387 963.68C368.107 952.093 374.28 940.747 380.853 929.627Z"></path>
<path fill="#E1C975" d="M471.2 932.547C472.413 939.187 473.36 945.88 474.107 952.6C470.093 946.707 470.44 939.293 471.2 932.547Z"></path>
<path fill="#002269" d="M213.72 941.987C215.64 940.88 217.933 941.187 220.053 941.12C237.36 941.213 254.68 941.267 271.987 941.24C274.507 941.267 277.427 941.16 279.227 943.267C282.48 946.48 279.187 952.72 274.733 952.28C255.56 952.227 236.373 952.267 217.2 952.253C211.813 952.347 209.533 945.16 213.72 941.987Z"></path>
<path fill="#E8E8E9" d="M484.493 948.787C492.16 951.96 499.027 956.72 506.613 960.107C525.107 969.387 544.693 976.213 564.547 981.96C621.493 997.547 681.107 1002.76 739.96 998.853C769.267 997.227 798.427 992.92 826.893 985.773C848.507 980.813 869.053 972.347 889.333 963.587C887.133 978 884.867 992.4 882.493 1006.8C881.787 1013.47 875.733 1018.61 869.24 1019.25C751.053 1019.35 632.84 1019.39 514.64 1019.24C510.253 1019.09 505.76 1019.47 501.493 1018.35C495.893 1015.96 492.133 1010.23 491.693 1004.21C489.547 985.707 486.52 967.307 484.493 948.787Z"></path>
<path fill="#FDFEFD" d="M125.933 1007.36C127.467 1004.11 131.213 1003.07 134.533 1003.23C249.907 1003.25 365.267 1003.23 480.627 1003.16C481.173 1008.83 481.493 1014.63 483.747 1019.95C450.067 1019.24 416.373 1019.89 382.68 1019.67C299.56 1019.64 216.44 1019.55 133.32 1019.68C127.267 1019.97 122.933 1012.55 125.933 1007.36Z"></path>
<path fill="#FDFEFC" d="M893.693 1003.17C1005.57 1003.11 1117.45 1003.33 1229.35 1003.36C1234.11 1002.81 1238.15 1007.39 1237.91 1011.97C1237.8 1016.27 1233.64 1019.79 1229.44 1019.72C1116.36 1019.6 1003.28 1019.6 890.213 1019.72C893.027 1014.65 893.04 1008.77 893.693 1003.17Z"></path>
<path fill="#001B58" d="M606.107 1024.59C613.573 1021.91 621.627 1023.57 629.36 1022.8C696.027 1022.75 762.693 1022.77 829.347 1022.68C831.56 1022.55 833.8 1022.99 835.72 1024.16C844.173 1028.61 854.307 1024.57 862.933 1028.25C859.573 1029 856.213 1029.69 852.8 1030.13C743.36 1030.25 633.88 1030.35 524.44 1030.11C517.6 1028.6 510.093 1030.48 503.707 1027.17C517.467 1025.67 531.333 1027.6 545.08 1026.17C558.453 1024.57 571.92 1025.79 585.333 1025.32C592.24 1024.93 599.347 1026.47 606.107 1024.59Z"></path>
<path fill="black" d="M451.504 1260.74C451.504 1269.83 450.352 1278.02 448.048 1285.58C443.312 1300.55 430.128 1310.66 412.336 1310.66C405.808 1310.66 398.768 1309.64 393.776 1308.1V1290.7C399.28 1293.64 404.4 1295.18 409.264 1295.3C422.448 1295.82 431.792 1287.62 432.432 1275.46C427.184 1278.79 420.912 1280.33 413.616 1280.07C396.336 1279.43 387.888 1269.32 387.888 1250.25C387.888 1230.15 399.408 1217.74 418.864 1217.74C442.8 1217.74 451.504 1235.53 451.504 1260.74ZM406.576 1249.99C406.576 1261.13 410.416 1265.99 418.48 1265.99C426.672 1265.99 431.664 1261.13 431.664 1249.99C431.664 1238.73 426.544 1233.1 418.48 1233.1C410.416 1233.1 406.576 1238.73 406.576 1249.99ZM472.86 1239.88H493.852V1260.87H472.86V1239.88ZM472.86 1309V1288.01H493.852V1309H472.86ZM547.01 1310.66C525.634 1310.66 514.882 1295.18 514.882 1264.2C514.882 1233.22 525.634 1217.74 547.01 1217.74C568.386 1217.74 579.138 1233.22 579.138 1264.2C579.138 1295.18 568.386 1310.66 547.01 1310.66ZM533.698 1264.2C533.698 1274.18 534.722 1281.86 536.898 1287.24C538.946 1292.62 542.274 1295.3 547.01 1295.3C551.746 1295.3 555.074 1292.62 557.25 1287.24C559.298 1281.86 560.322 1274.18 560.322 1264.2C560.322 1254.34 559.298 1246.66 557.25 1241.16C555.074 1235.78 551.746 1233.1 547.01 1233.1C542.274 1233.1 538.946 1235.78 536.898 1241.16C534.722 1246.66 533.698 1254.34 533.698 1264.2ZM622.51 1310.66C601.134 1310.66 590.382 1295.18 590.382 1264.2C590.382 1233.22 601.134 1217.74 622.51 1217.74C643.886 1217.74 654.638 1233.22 654.638 1264.2C654.638 1295.18 643.886 1310.66 622.51 1310.66ZM609.198 1264.2C609.198 1274.18 610.222 1281.86 612.398 1287.24C614.446 1292.62 617.774 1295.3 622.51 1295.3C627.246 1295.3 630.574 1292.62 632.75 1287.24C634.798 1281.86 635.822 1274.18 635.822 1264.2C635.822 1254.34 634.798 1246.66 632.75 1241.16C630.574 1235.78 627.246 1233.1 622.51 1233.1C617.774 1233.1 614.446 1235.78 612.398 1241.16C610.222 1246.66 609.198 1254.34 609.198 1264.2ZM733.15 1315.27V1298.12H781.918V1230.15H739.678V1213H841.822V1230.15H799.582V1298.12H848.35V1315.27H733.15ZM859.87 1249.86C869.47 1237.96 875.742 1223.37 879.198 1206.6H895.326C893.79 1216.07 891.486 1224.9 888.542 1232.97V1321.8H872.03V1262.66C868.318 1267.27 864.35 1271.5 859.87 1275.34V1249.86ZM890.59 1258.06C897.246 1240.78 902.366 1223.62 905.95 1206.6H921.95C921.438 1209.67 920.798 1212.74 920.158 1215.82H976.35V1232.33H938.206V1249.48H972.126V1265.86H938.206V1282.63H972.126V1299.02H938.206V1321.8H921.566V1232.33H916.318C914.142 1241.16 911.454 1249.74 908.382 1258.06H890.59Z"></path>
</g>
<defs>
<clipPath id="clip0_1_2">
<rect fill="white" height="1365.33" width="1365.33"></rect>
</clipPath>
</defs>
</svg>
